<mxfile host="app.diagrams.net" agent="Mozilla/5.0 (Windows NT 10.0; Win64; x64) AppleWebKit/537.36 (KHTML, like Gecko) Chrome/134.0.0.0 Safari/537.36" version="26.1.1" pages="2">
  <diagram id="R2lEEEUBdFMjLlhIrx00" name="Page-1">
    <mxGraphModel dx="2173" dy="1800" grid="1" gridSize="10" guides="1" tooltips="1" connect="1" arrows="1" fold="1" page="1" pageScale="1" pageWidth="850" pageHeight="1100" math="0" shadow="0" extFonts="Permanent Marker^https://fonts.googleapis.com/css?family=Permanent+Marker">
      <root>
        <mxCell id="0" />
        <mxCell id="1" parent="0" />
        <mxCell id="C-vyLk0tnHw3VtMMgP7b-23" value="Customers" style="shape=table;startSize=30;container=1;collapsible=1;childLayout=tableLayout;fixedRows=1;rowLines=0;fontStyle=1;align=center;resizeLast=1;labelBackgroundColor=none;fillColor=#F5AB50;strokeColor=#909090;fontColor=#1A1A1A;" parent="1" vertex="1">
          <mxGeometry y="20" width="270" height="300" as="geometry" />
        </mxCell>
        <mxCell id="C-vyLk0tnHw3VtMMgP7b-24" value="" style="shape=partialRectangle;collapsible=0;dropTarget=0;pointerEvents=0;fillColor=none;points=[[0,0.5],[1,0.5]];portConstraint=eastwest;top=0;left=0;right=0;bottom=1;labelBackgroundColor=none;strokeColor=#909090;fontColor=#1A1A1A;" parent="C-vyLk0tnHw3VtMMgP7b-23" vertex="1">
          <mxGeometry y="30" width="270" height="30" as="geometry" />
        </mxCell>
        <mxCell id="C-vyLk0tnHw3VtMMgP7b-25" value="PK" style="shape=partialRectangle;overflow=hidden;connectable=0;fillColor=none;top=0;left=0;bottom=0;right=0;fontStyle=1;labelBackgroundColor=none;strokeColor=#909090;fontColor=#1A1A1A;" parent="C-vyLk0tnHw3VtMMgP7b-24" vertex="1">
          <mxGeometry width="30" height="30" as="geometry">
            <mxRectangle width="30" height="30" as="alternateBounds" />
          </mxGeometry>
        </mxCell>
        <mxCell id="C-vyLk0tnHw3VtMMgP7b-26" value="CustomerID  int NOT NULL " style="shape=partialRectangle;overflow=hidden;connectable=0;fillColor=none;top=0;left=0;bottom=0;right=0;align=left;spacingLeft=6;fontStyle=5;labelBackgroundColor=none;strokeColor=#909090;fontColor=#1A1A1A;" parent="C-vyLk0tnHw3VtMMgP7b-24" vertex="1">
          <mxGeometry x="30" width="240" height="30" as="geometry">
            <mxRectangle width="240" height="30" as="alternateBounds" />
          </mxGeometry>
        </mxCell>
        <mxCell id="C-vyLk0tnHw3VtMMgP7b-27" value="" style="shape=partialRectangle;collapsible=0;dropTarget=0;pointerEvents=0;fillColor=none;points=[[0,0.5],[1,0.5]];portConstraint=eastwest;top=0;left=0;right=0;bottom=0;labelBackgroundColor=none;strokeColor=#909090;fontColor=#1A1A1A;" parent="C-vyLk0tnHw3VtMMgP7b-23" vertex="1">
          <mxGeometry y="60" width="270" height="30" as="geometry" />
        </mxCell>
        <mxCell id="C-vyLk0tnHw3VtMMgP7b-28" value="" style="shape=partialRectangle;overflow=hidden;connectable=0;fillColor=none;top=0;left=0;bottom=0;right=0;labelBackgroundColor=none;strokeColor=#909090;fontColor=#1A1A1A;" parent="C-vyLk0tnHw3VtMMgP7b-27" vertex="1">
          <mxGeometry width="30" height="30" as="geometry">
            <mxRectangle width="30" height="30" as="alternateBounds" />
          </mxGeometry>
        </mxCell>
        <mxCell id="C-vyLk0tnHw3VtMMgP7b-29" value="FirstName char(50) NOT NULL" style="shape=partialRectangle;overflow=hidden;connectable=0;fillColor=none;top=0;left=0;bottom=0;right=0;align=left;spacingLeft=6;labelBackgroundColor=none;strokeColor=#909090;fontColor=#1A1A1A;" parent="C-vyLk0tnHw3VtMMgP7b-27" vertex="1">
          <mxGeometry x="30" width="240" height="30" as="geometry">
            <mxRectangle width="240" height="30" as="alternateBounds" />
          </mxGeometry>
        </mxCell>
        <mxCell id="UBkZdzB4D0MRErVhKQem-1" value="" style="shape=partialRectangle;collapsible=0;dropTarget=0;pointerEvents=0;fillColor=none;points=[[0,0.5],[1,0.5]];portConstraint=eastwest;top=0;left=0;right=0;bottom=0;labelBackgroundColor=none;strokeColor=#909090;fontColor=#1A1A1A;" parent="C-vyLk0tnHw3VtMMgP7b-23" vertex="1">
          <mxGeometry y="90" width="270" height="30" as="geometry" />
        </mxCell>
        <mxCell id="UBkZdzB4D0MRErVhKQem-2" value="" style="shape=partialRectangle;overflow=hidden;connectable=0;fillColor=none;top=0;left=0;bottom=0;right=0;labelBackgroundColor=none;strokeColor=#909090;fontColor=#1A1A1A;" parent="UBkZdzB4D0MRErVhKQem-1" vertex="1">
          <mxGeometry width="30" height="30" as="geometry">
            <mxRectangle width="30" height="30" as="alternateBounds" />
          </mxGeometry>
        </mxCell>
        <mxCell id="UBkZdzB4D0MRErVhKQem-3" value="MiddleName char(50) NOT NULL" style="shape=partialRectangle;overflow=hidden;connectable=0;fillColor=none;top=0;left=0;bottom=0;right=0;align=left;spacingLeft=6;labelBackgroundColor=none;strokeColor=#909090;fontColor=#1A1A1A;" parent="UBkZdzB4D0MRErVhKQem-1" vertex="1">
          <mxGeometry x="30" width="240" height="30" as="geometry">
            <mxRectangle width="240" height="30" as="alternateBounds" />
          </mxGeometry>
        </mxCell>
        <mxCell id="UBkZdzB4D0MRErVhKQem-7" value="" style="shape=partialRectangle;collapsible=0;dropTarget=0;pointerEvents=0;fillColor=none;points=[[0,0.5],[1,0.5]];portConstraint=eastwest;top=0;left=0;right=0;bottom=0;labelBackgroundColor=none;strokeColor=#909090;fontColor=#1A1A1A;" parent="C-vyLk0tnHw3VtMMgP7b-23" vertex="1">
          <mxGeometry y="120" width="270" height="30" as="geometry" />
        </mxCell>
        <mxCell id="UBkZdzB4D0MRErVhKQem-8" value="" style="shape=partialRectangle;overflow=hidden;connectable=0;fillColor=none;top=0;left=0;bottom=0;right=0;labelBackgroundColor=none;strokeColor=#909090;fontColor=#1A1A1A;" parent="UBkZdzB4D0MRErVhKQem-7" vertex="1">
          <mxGeometry width="30" height="30" as="geometry">
            <mxRectangle width="30" height="30" as="alternateBounds" />
          </mxGeometry>
        </mxCell>
        <mxCell id="UBkZdzB4D0MRErVhKQem-9" value="LastName char(50) NOT NULL" style="shape=partialRectangle;overflow=hidden;connectable=0;fillColor=none;top=0;left=0;bottom=0;right=0;align=left;spacingLeft=6;labelBackgroundColor=none;strokeColor=#909090;fontColor=#1A1A1A;" parent="UBkZdzB4D0MRErVhKQem-7" vertex="1">
          <mxGeometry x="30" width="240" height="30" as="geometry">
            <mxRectangle width="240" height="30" as="alternateBounds" />
          </mxGeometry>
        </mxCell>
        <mxCell id="UBkZdzB4D0MRErVhKQem-10" value="" style="shape=partialRectangle;collapsible=0;dropTarget=0;pointerEvents=0;fillColor=none;points=[[0,0.5],[1,0.5]];portConstraint=eastwest;top=0;left=0;right=0;bottom=0;labelBackgroundColor=none;strokeColor=#909090;fontColor=#1A1A1A;" parent="C-vyLk0tnHw3VtMMgP7b-23" vertex="1">
          <mxGeometry y="150" width="270" height="30" as="geometry" />
        </mxCell>
        <mxCell id="UBkZdzB4D0MRErVhKQem-11" value="" style="shape=partialRectangle;overflow=hidden;connectable=0;fillColor=none;top=0;left=0;bottom=0;right=0;labelBackgroundColor=none;strokeColor=#909090;fontColor=#1A1A1A;" parent="UBkZdzB4D0MRErVhKQem-10" vertex="1">
          <mxGeometry width="30" height="30" as="geometry">
            <mxRectangle width="30" height="30" as="alternateBounds" />
          </mxGeometry>
        </mxCell>
        <mxCell id="UBkZdzB4D0MRErVhKQem-12" value="DateOfBirth char(50) NOT NULL" style="shape=partialRectangle;overflow=hidden;connectable=0;fillColor=none;top=0;left=0;bottom=0;right=0;align=left;spacingLeft=6;labelBackgroundColor=none;strokeColor=#909090;fontColor=#1A1A1A;" parent="UBkZdzB4D0MRErVhKQem-10" vertex="1">
          <mxGeometry x="30" width="240" height="30" as="geometry">
            <mxRectangle width="240" height="30" as="alternateBounds" />
          </mxGeometry>
        </mxCell>
        <mxCell id="UBkZdzB4D0MRErVhKQem-20" value="" style="shape=partialRectangle;collapsible=0;dropTarget=0;pointerEvents=0;fillColor=none;points=[[0,0.5],[1,0.5]];portConstraint=eastwest;top=0;left=0;right=0;bottom=0;labelBackgroundColor=none;strokeColor=#909090;fontColor=#1A1A1A;" parent="C-vyLk0tnHw3VtMMgP7b-23" vertex="1">
          <mxGeometry y="180" width="270" height="30" as="geometry" />
        </mxCell>
        <mxCell id="UBkZdzB4D0MRErVhKQem-21" value="" style="shape=partialRectangle;overflow=hidden;connectable=0;fillColor=none;top=0;left=0;bottom=0;right=0;labelBackgroundColor=none;strokeColor=#909090;fontColor=#1A1A1A;" parent="UBkZdzB4D0MRErVhKQem-20" vertex="1">
          <mxGeometry width="30" height="30" as="geometry">
            <mxRectangle width="30" height="30" as="alternateBounds" />
          </mxGeometry>
        </mxCell>
        <mxCell id="UBkZdzB4D0MRErVhKQem-22" value="Gender char(50) NOT NULL" style="shape=partialRectangle;overflow=hidden;connectable=0;fillColor=none;top=0;left=0;bottom=0;right=0;align=left;spacingLeft=6;labelBackgroundColor=none;strokeColor=#909090;fontColor=#1A1A1A;" parent="UBkZdzB4D0MRErVhKQem-20" vertex="1">
          <mxGeometry x="30" width="240" height="30" as="geometry">
            <mxRectangle width="240" height="30" as="alternateBounds" />
          </mxGeometry>
        </mxCell>
        <mxCell id="UBkZdzB4D0MRErVhKQem-26" value="" style="shape=partialRectangle;collapsible=0;dropTarget=0;pointerEvents=0;fillColor=none;points=[[0,0.5],[1,0.5]];portConstraint=eastwest;top=0;left=0;right=0;bottom=0;labelBackgroundColor=none;strokeColor=#909090;fontColor=#1A1A1A;" parent="C-vyLk0tnHw3VtMMgP7b-23" vertex="1">
          <mxGeometry y="210" width="270" height="30" as="geometry" />
        </mxCell>
        <mxCell id="UBkZdzB4D0MRErVhKQem-27" value="" style="shape=partialRectangle;overflow=hidden;connectable=0;fillColor=none;top=0;left=0;bottom=0;right=0;labelBackgroundColor=none;strokeColor=#909090;fontColor=#1A1A1A;" parent="UBkZdzB4D0MRErVhKQem-26" vertex="1">
          <mxGeometry width="30" height="30" as="geometry">
            <mxRectangle width="30" height="30" as="alternateBounds" />
          </mxGeometry>
        </mxCell>
        <mxCell id="UBkZdzB4D0MRErVhKQem-28" value="ResidentialAddress char(50) NOT NULL" style="shape=partialRectangle;overflow=hidden;connectable=0;fillColor=none;top=0;left=0;bottom=0;right=0;align=left;spacingLeft=6;labelBackgroundColor=none;strokeColor=#909090;fontColor=#1A1A1A;" parent="UBkZdzB4D0MRErVhKQem-26" vertex="1">
          <mxGeometry x="30" width="240" height="30" as="geometry">
            <mxRectangle width="240" height="30" as="alternateBounds" />
          </mxGeometry>
        </mxCell>
        <mxCell id="UBkZdzB4D0MRErVhKQem-17" value="" style="shape=partialRectangle;collapsible=0;dropTarget=0;pointerEvents=0;fillColor=none;points=[[0,0.5],[1,0.5]];portConstraint=eastwest;top=0;left=0;right=0;bottom=0;labelBackgroundColor=none;strokeColor=#909090;fontColor=#1A1A1A;" parent="C-vyLk0tnHw3VtMMgP7b-23" vertex="1">
          <mxGeometry y="240" width="270" height="30" as="geometry" />
        </mxCell>
        <mxCell id="UBkZdzB4D0MRErVhKQem-18" value="" style="shape=partialRectangle;overflow=hidden;connectable=0;fillColor=none;top=0;left=0;bottom=0;right=0;labelBackgroundColor=none;strokeColor=#909090;fontColor=#1A1A1A;" parent="UBkZdzB4D0MRErVhKQem-17" vertex="1">
          <mxGeometry width="30" height="30" as="geometry">
            <mxRectangle width="30" height="30" as="alternateBounds" />
          </mxGeometry>
        </mxCell>
        <mxCell id="UBkZdzB4D0MRErVhKQem-19" value="GhanaCardNumber char(50) NOT NULL" style="shape=partialRectangle;overflow=hidden;connectable=0;fillColor=none;top=0;left=0;bottom=0;right=0;align=left;spacingLeft=6;labelBackgroundColor=none;strokeColor=#909090;fontColor=#1A1A1A;" parent="UBkZdzB4D0MRErVhKQem-17" vertex="1">
          <mxGeometry x="30" width="240" height="30" as="geometry">
            <mxRectangle width="240" height="30" as="alternateBounds" />
          </mxGeometry>
        </mxCell>
        <mxCell id="UBkZdzB4D0MRErVhKQem-86" value="" style="shape=tableRow;horizontal=0;startSize=0;swimlaneHead=0;swimlaneBody=0;fillColor=none;collapsible=0;dropTarget=0;points=[[0,0.5],[1,0.5]];portConstraint=eastwest;top=0;left=0;right=0;bottom=0;labelBackgroundColor=none;strokeColor=#909090;fontColor=#1A1A1A;" parent="C-vyLk0tnHw3VtMMgP7b-23" vertex="1">
          <mxGeometry y="270" width="270" height="30" as="geometry" />
        </mxCell>
        <mxCell id="UBkZdzB4D0MRErVhKQem-87" value="" style="shape=partialRectangle;connectable=0;fillColor=none;top=0;left=0;bottom=0;right=0;editable=1;overflow=hidden;labelBackgroundColor=none;strokeColor=#909090;fontColor=#1A1A1A;" parent="UBkZdzB4D0MRErVhKQem-86" vertex="1">
          <mxGeometry width="30" height="30" as="geometry">
            <mxRectangle width="30" height="30" as="alternateBounds" />
          </mxGeometry>
        </mxCell>
        <mxCell id="UBkZdzB4D0MRErVhKQem-88" value="OtherFormsOfID  char(50) NOT NULL" style="shape=partialRectangle;connectable=0;fillColor=none;top=0;left=0;bottom=0;right=0;align=left;spacingLeft=6;overflow=hidden;labelBackgroundColor=none;strokeColor=#909090;fontColor=#1A1A1A;" parent="UBkZdzB4D0MRErVhKQem-86" vertex="1">
          <mxGeometry x="30" width="240" height="30" as="geometry">
            <mxRectangle width="240" height="30" as="alternateBounds" />
          </mxGeometry>
        </mxCell>
        <mxCell id="yNZyAWRhLC5uPwF4M_fy-1" value="Loan" style="shape=table;startSize=30;container=1;collapsible=1;childLayout=tableLayout;fixedRows=1;rowLines=0;fontStyle=1;align=center;resizeLast=1;labelBackgroundColor=none;fillColor=#F5AB50;strokeColor=#909090;fontColor=#1A1A1A;" parent="1" vertex="1">
          <mxGeometry x="380" y="40" width="270" height="240" as="geometry" />
        </mxCell>
        <mxCell id="yNZyAWRhLC5uPwF4M_fy-2" value="" style="shape=partialRectangle;collapsible=0;dropTarget=0;pointerEvents=0;fillColor=none;points=[[0,0.5],[1,0.5]];portConstraint=eastwest;top=0;left=0;right=0;bottom=1;labelBackgroundColor=none;strokeColor=#909090;fontColor=#1A1A1A;" parent="yNZyAWRhLC5uPwF4M_fy-1" vertex="1">
          <mxGeometry y="30" width="270" height="30" as="geometry" />
        </mxCell>
        <mxCell id="yNZyAWRhLC5uPwF4M_fy-3" value="PK" style="shape=partialRectangle;overflow=hidden;connectable=0;fillColor=none;top=0;left=0;bottom=0;right=0;fontStyle=1;labelBackgroundColor=none;strokeColor=#909090;fontColor=#1A1A1A;" parent="yNZyAWRhLC5uPwF4M_fy-2" vertex="1">
          <mxGeometry width="30" height="30" as="geometry">
            <mxRectangle width="30" height="30" as="alternateBounds" />
          </mxGeometry>
        </mxCell>
        <mxCell id="yNZyAWRhLC5uPwF4M_fy-4" value="LoanID int NOT NULL " style="shape=partialRectangle;overflow=hidden;connectable=0;fillColor=none;top=0;left=0;bottom=0;right=0;align=left;spacingLeft=6;fontStyle=5;labelBackgroundColor=none;strokeColor=#909090;fontColor=#1A1A1A;" parent="yNZyAWRhLC5uPwF4M_fy-2" vertex="1">
          <mxGeometry x="30" width="240" height="30" as="geometry">
            <mxRectangle width="240" height="30" as="alternateBounds" />
          </mxGeometry>
        </mxCell>
        <mxCell id="yNZyAWRhLC5uPwF4M_fy-5" value="" style="shape=partialRectangle;collapsible=0;dropTarget=0;pointerEvents=0;fillColor=none;points=[[0,0.5],[1,0.5]];portConstraint=eastwest;top=0;left=0;right=0;bottom=0;labelBackgroundColor=none;strokeColor=#909090;fontColor=#1A1A1A;" parent="yNZyAWRhLC5uPwF4M_fy-1" vertex="1">
          <mxGeometry y="60" width="270" height="30" as="geometry" />
        </mxCell>
        <mxCell id="yNZyAWRhLC5uPwF4M_fy-6" value="FK" style="shape=partialRectangle;overflow=hidden;connectable=0;fillColor=none;top=0;left=0;bottom=0;right=0;labelBackgroundColor=none;strokeColor=#909090;fontColor=#1A1A1A;" parent="yNZyAWRhLC5uPwF4M_fy-5" vertex="1">
          <mxGeometry width="30" height="30" as="geometry">
            <mxRectangle width="30" height="30" as="alternateBounds" />
          </mxGeometry>
        </mxCell>
        <mxCell id="yNZyAWRhLC5uPwF4M_fy-7" value="CustomerID char(50) NOT NULL" style="shape=partialRectangle;overflow=hidden;connectable=0;fillColor=none;top=0;left=0;bottom=0;right=0;align=left;spacingLeft=6;labelBackgroundColor=none;strokeColor=#909090;fontColor=#1A1A1A;" parent="yNZyAWRhLC5uPwF4M_fy-5" vertex="1">
          <mxGeometry x="30" width="240" height="30" as="geometry">
            <mxRectangle width="240" height="30" as="alternateBounds" />
          </mxGeometry>
        </mxCell>
        <mxCell id="yNZyAWRhLC5uPwF4M_fy-8" value="" style="shape=partialRectangle;collapsible=0;dropTarget=0;pointerEvents=0;fillColor=none;points=[[0,0.5],[1,0.5]];portConstraint=eastwest;top=0;left=0;right=0;bottom=0;labelBackgroundColor=none;strokeColor=#909090;fontColor=#1A1A1A;" parent="yNZyAWRhLC5uPwF4M_fy-1" vertex="1">
          <mxGeometry y="90" width="270" height="30" as="geometry" />
        </mxCell>
        <mxCell id="yNZyAWRhLC5uPwF4M_fy-9" value="FK" style="shape=partialRectangle;overflow=hidden;connectable=0;fillColor=none;top=0;left=0;bottom=0;right=0;labelBackgroundColor=none;strokeColor=#909090;fontColor=#1A1A1A;" parent="yNZyAWRhLC5uPwF4M_fy-8" vertex="1">
          <mxGeometry width="30" height="30" as="geometry">
            <mxRectangle width="30" height="30" as="alternateBounds" />
          </mxGeometry>
        </mxCell>
        <mxCell id="yNZyAWRhLC5uPwF4M_fy-10" value="LoanProductID char(50) NOT NULL" style="shape=partialRectangle;overflow=hidden;connectable=0;fillColor=none;top=0;left=0;bottom=0;right=0;align=left;spacingLeft=6;labelBackgroundColor=none;strokeColor=#909090;fontColor=#1A1A1A;" parent="yNZyAWRhLC5uPwF4M_fy-8" vertex="1">
          <mxGeometry x="30" width="240" height="30" as="geometry">
            <mxRectangle width="240" height="30" as="alternateBounds" />
          </mxGeometry>
        </mxCell>
        <mxCell id="yNZyAWRhLC5uPwF4M_fy-11" value="" style="shape=partialRectangle;collapsible=0;dropTarget=0;pointerEvents=0;fillColor=none;points=[[0,0.5],[1,0.5]];portConstraint=eastwest;top=0;left=0;right=0;bottom=0;labelBackgroundColor=none;strokeColor=#909090;fontColor=#1A1A1A;" parent="yNZyAWRhLC5uPwF4M_fy-1" vertex="1">
          <mxGeometry y="120" width="270" height="30" as="geometry" />
        </mxCell>
        <mxCell id="yNZyAWRhLC5uPwF4M_fy-12" value="FK" style="shape=partialRectangle;overflow=hidden;connectable=0;fillColor=none;top=0;left=0;bottom=0;right=0;labelBackgroundColor=none;strokeColor=#909090;fontColor=#1A1A1A;" parent="yNZyAWRhLC5uPwF4M_fy-11" vertex="1">
          <mxGeometry width="30" height="30" as="geometry">
            <mxRectangle width="30" height="30" as="alternateBounds" />
          </mxGeometry>
        </mxCell>
        <mxCell id="yNZyAWRhLC5uPwF4M_fy-13" value="ApplicationID char(50) NOT NULL" style="shape=partialRectangle;overflow=hidden;connectable=0;fillColor=none;top=0;left=0;bottom=0;right=0;align=left;spacingLeft=6;labelBackgroundColor=none;strokeColor=#909090;fontColor=#1A1A1A;" parent="yNZyAWRhLC5uPwF4M_fy-11" vertex="1">
          <mxGeometry x="30" width="240" height="30" as="geometry">
            <mxRectangle width="240" height="30" as="alternateBounds" />
          </mxGeometry>
        </mxCell>
        <mxCell id="yNZyAWRhLC5uPwF4M_fy-62" value="" style="shape=tableRow;horizontal=0;startSize=0;swimlaneHead=0;swimlaneBody=0;fillColor=none;collapsible=0;dropTarget=0;points=[[0,0.5],[1,0.5]];portConstraint=eastwest;top=0;left=0;right=0;bottom=0;labelBackgroundColor=none;strokeColor=#909090;fontColor=#1A1A1A;" parent="yNZyAWRhLC5uPwF4M_fy-1" vertex="1">
          <mxGeometry y="150" width="270" height="30" as="geometry" />
        </mxCell>
        <mxCell id="yNZyAWRhLC5uPwF4M_fy-63" value="" style="shape=partialRectangle;connectable=0;fillColor=none;top=0;left=0;bottom=0;right=0;editable=1;overflow=hidden;labelBackgroundColor=none;strokeColor=#909090;fontColor=#1A1A1A;" parent="yNZyAWRhLC5uPwF4M_fy-62" vertex="1">
          <mxGeometry width="30" height="30" as="geometry">
            <mxRectangle width="30" height="30" as="alternateBounds" />
          </mxGeometry>
        </mxCell>
        <mxCell id="yNZyAWRhLC5uPwF4M_fy-64" value="LoanAmountGranted char(50) NOT NUL" style="shape=partialRectangle;connectable=0;fillColor=none;top=0;left=0;bottom=0;right=0;align=left;spacingLeft=6;overflow=hidden;labelBackgroundColor=none;strokeColor=#909090;fontColor=#1A1A1A;" parent="yNZyAWRhLC5uPwF4M_fy-62" vertex="1">
          <mxGeometry x="30" width="240" height="30" as="geometry">
            <mxRectangle width="240" height="30" as="alternateBounds" />
          </mxGeometry>
        </mxCell>
        <mxCell id="yNZyAWRhLC5uPwF4M_fy-84" value="" style="shape=partialRectangle;collapsible=0;dropTarget=0;pointerEvents=0;fillColor=none;points=[[0,0.5],[1,0.5]];portConstraint=eastwest;top=0;left=0;right=0;bottom=0;labelBackgroundColor=none;strokeColor=#909090;fontColor=#1A1A1A;" parent="yNZyAWRhLC5uPwF4M_fy-1" vertex="1">
          <mxGeometry y="180" width="270" height="30" as="geometry" />
        </mxCell>
        <mxCell id="yNZyAWRhLC5uPwF4M_fy-85" value="" style="shape=partialRectangle;overflow=hidden;connectable=0;fillColor=none;top=0;left=0;bottom=0;right=0;labelBackgroundColor=none;strokeColor=#909090;fontColor=#1A1A1A;" parent="yNZyAWRhLC5uPwF4M_fy-84" vertex="1">
          <mxGeometry width="30" height="30" as="geometry">
            <mxRectangle width="30" height="30" as="alternateBounds" />
          </mxGeometry>
        </mxCell>
        <mxCell id="yNZyAWRhLC5uPwF4M_fy-86" value="LoanStartDate char(50) NOT NULL" style="shape=partialRectangle;overflow=hidden;connectable=0;fillColor=none;top=0;left=0;bottom=0;right=0;align=left;spacingLeft=6;labelBackgroundColor=none;strokeColor=#909090;fontColor=#1A1A1A;" parent="yNZyAWRhLC5uPwF4M_fy-84" vertex="1">
          <mxGeometry x="30" width="240" height="30" as="geometry">
            <mxRectangle width="240" height="30" as="alternateBounds" />
          </mxGeometry>
        </mxCell>
        <mxCell id="yNZyAWRhLC5uPwF4M_fy-87" value="" style="shape=partialRectangle;collapsible=0;dropTarget=0;pointerEvents=0;fillColor=none;points=[[0,0.5],[1,0.5]];portConstraint=eastwest;top=0;left=0;right=0;bottom=0;labelBackgroundColor=none;strokeColor=#909090;fontColor=#1A1A1A;" parent="yNZyAWRhLC5uPwF4M_fy-1" vertex="1">
          <mxGeometry y="210" width="270" height="30" as="geometry" />
        </mxCell>
        <mxCell id="yNZyAWRhLC5uPwF4M_fy-88" value="" style="shape=partialRectangle;overflow=hidden;connectable=0;fillColor=none;top=0;left=0;bottom=0;right=0;labelBackgroundColor=none;strokeColor=#909090;fontColor=#1A1A1A;" parent="yNZyAWRhLC5uPwF4M_fy-87" vertex="1">
          <mxGeometry width="30" height="30" as="geometry">
            <mxRectangle width="30" height="30" as="alternateBounds" />
          </mxGeometry>
        </mxCell>
        <mxCell id="yNZyAWRhLC5uPwF4M_fy-89" value="LoanEndDate char(50) NOT NULL" style="shape=partialRectangle;overflow=hidden;connectable=0;fillColor=none;top=0;left=0;bottom=0;right=0;align=left;spacingLeft=6;labelBackgroundColor=none;strokeColor=#909090;fontColor=#1A1A1A;" parent="yNZyAWRhLC5uPwF4M_fy-87" vertex="1">
          <mxGeometry x="30" width="240" height="30" as="geometry">
            <mxRectangle width="240" height="30" as="alternateBounds" />
          </mxGeometry>
        </mxCell>
        <mxCell id="yNZyAWRhLC5uPwF4M_fy-34" value="Account" style="shape=table;startSize=30;container=1;collapsible=1;childLayout=tableLayout;fixedRows=1;rowLines=0;fontStyle=1;align=center;resizeLast=1;labelBackgroundColor=none;fillColor=#F5AB50;strokeColor=#909090;fontColor=#1A1A1A;" parent="1" vertex="1">
          <mxGeometry x="-80" y="-180" width="270" height="160" as="geometry" />
        </mxCell>
        <mxCell id="yNZyAWRhLC5uPwF4M_fy-35" value="" style="shape=partialRectangle;collapsible=0;dropTarget=0;pointerEvents=0;fillColor=none;points=[[0,0.5],[1,0.5]];portConstraint=eastwest;top=0;left=0;right=0;bottom=1;labelBackgroundColor=none;strokeColor=#909090;fontColor=#1A1A1A;" parent="yNZyAWRhLC5uPwF4M_fy-34" vertex="1">
          <mxGeometry y="30" width="270" height="30" as="geometry" />
        </mxCell>
        <mxCell id="yNZyAWRhLC5uPwF4M_fy-36" value="PK" style="shape=partialRectangle;overflow=hidden;connectable=0;fillColor=none;top=0;left=0;bottom=0;right=0;fontStyle=1;labelBackgroundColor=none;strokeColor=#909090;fontColor=#1A1A1A;" parent="yNZyAWRhLC5uPwF4M_fy-35" vertex="1">
          <mxGeometry width="30" height="30" as="geometry">
            <mxRectangle width="30" height="30" as="alternateBounds" />
          </mxGeometry>
        </mxCell>
        <mxCell id="yNZyAWRhLC5uPwF4M_fy-37" value="AccountNumber  int NOT NULL " style="shape=partialRectangle;overflow=hidden;connectable=0;fillColor=none;top=0;left=0;bottom=0;right=0;align=left;spacingLeft=6;fontStyle=5;labelBackgroundColor=none;strokeColor=#909090;fontColor=#1A1A1A;" parent="yNZyAWRhLC5uPwF4M_fy-35" vertex="1">
          <mxGeometry x="30" width="240" height="30" as="geometry">
            <mxRectangle width="240" height="30" as="alternateBounds" />
          </mxGeometry>
        </mxCell>
        <mxCell id="yNZyAWRhLC5uPwF4M_fy-38" value="" style="shape=partialRectangle;collapsible=0;dropTarget=0;pointerEvents=0;fillColor=none;points=[[0,0.5],[1,0.5]];portConstraint=eastwest;top=0;left=0;right=0;bottom=0;labelBackgroundColor=none;strokeColor=#909090;fontColor=#1A1A1A;" parent="yNZyAWRhLC5uPwF4M_fy-34" vertex="1">
          <mxGeometry y="60" width="270" height="30" as="geometry" />
        </mxCell>
        <mxCell id="yNZyAWRhLC5uPwF4M_fy-39" value="FK" style="shape=partialRectangle;overflow=hidden;connectable=0;fillColor=none;top=0;left=0;bottom=0;right=0;labelBackgroundColor=none;strokeColor=#909090;fontColor=#1A1A1A;" parent="yNZyAWRhLC5uPwF4M_fy-38" vertex="1">
          <mxGeometry width="30" height="30" as="geometry">
            <mxRectangle width="30" height="30" as="alternateBounds" />
          </mxGeometry>
        </mxCell>
        <mxCell id="yNZyAWRhLC5uPwF4M_fy-40" value="CustomerID  char(50) NOT NULL" style="shape=partialRectangle;overflow=hidden;connectable=0;fillColor=none;top=0;left=0;bottom=0;right=0;align=left;spacingLeft=6;labelBackgroundColor=none;strokeColor=#909090;fontColor=#1A1A1A;" parent="yNZyAWRhLC5uPwF4M_fy-38" vertex="1">
          <mxGeometry x="30" width="240" height="30" as="geometry">
            <mxRectangle width="240" height="30" as="alternateBounds" />
          </mxGeometry>
        </mxCell>
        <mxCell id="yNZyAWRhLC5uPwF4M_fy-41" value="" style="shape=partialRectangle;collapsible=0;dropTarget=0;pointerEvents=0;fillColor=none;points=[[0,0.5],[1,0.5]];portConstraint=eastwest;top=0;left=0;right=0;bottom=0;labelBackgroundColor=none;strokeColor=#909090;fontColor=#1A1A1A;" parent="yNZyAWRhLC5uPwF4M_fy-34" vertex="1">
          <mxGeometry y="90" width="270" height="30" as="geometry" />
        </mxCell>
        <mxCell id="yNZyAWRhLC5uPwF4M_fy-42" value="" style="shape=partialRectangle;overflow=hidden;connectable=0;fillColor=none;top=0;left=0;bottom=0;right=0;labelBackgroundColor=none;strokeColor=#909090;fontColor=#1A1A1A;" parent="yNZyAWRhLC5uPwF4M_fy-41" vertex="1">
          <mxGeometry width="30" height="30" as="geometry">
            <mxRectangle width="30" height="30" as="alternateBounds" />
          </mxGeometry>
        </mxCell>
        <mxCell id="yNZyAWRhLC5uPwF4M_fy-43" value="AccountType char(50) NOT NULL" style="shape=partialRectangle;overflow=hidden;connectable=0;fillColor=none;top=0;left=0;bottom=0;right=0;align=left;spacingLeft=6;labelBackgroundColor=none;strokeColor=#909090;fontColor=#1A1A1A;" parent="yNZyAWRhLC5uPwF4M_fy-41" vertex="1">
          <mxGeometry x="30" width="240" height="30" as="geometry">
            <mxRectangle width="240" height="30" as="alternateBounds" />
          </mxGeometry>
        </mxCell>
        <mxCell id="yNZyAWRhLC5uPwF4M_fy-44" value="" style="shape=partialRectangle;collapsible=0;dropTarget=0;pointerEvents=0;fillColor=none;points=[[0,0.5],[1,0.5]];portConstraint=eastwest;top=0;left=0;right=0;bottom=0;labelBackgroundColor=none;strokeColor=#909090;fontColor=#1A1A1A;" parent="yNZyAWRhLC5uPwF4M_fy-34" vertex="1">
          <mxGeometry y="120" width="270" height="30" as="geometry" />
        </mxCell>
        <mxCell id="yNZyAWRhLC5uPwF4M_fy-45" value="" style="shape=partialRectangle;overflow=hidden;connectable=0;fillColor=none;top=0;left=0;bottom=0;right=0;labelBackgroundColor=none;strokeColor=#909090;fontColor=#1A1A1A;" parent="yNZyAWRhLC5uPwF4M_fy-44" vertex="1">
          <mxGeometry width="30" height="30" as="geometry">
            <mxRectangle width="30" height="30" as="alternateBounds" />
          </mxGeometry>
        </mxCell>
        <mxCell id="yNZyAWRhLC5uPwF4M_fy-46" value="Balance char(50) NOT NULL" style="shape=partialRectangle;overflow=hidden;connectable=0;fillColor=none;top=0;left=0;bottom=0;right=0;align=left;spacingLeft=6;labelBackgroundColor=none;strokeColor=#909090;fontColor=#1A1A1A;" parent="yNZyAWRhLC5uPwF4M_fy-44" vertex="1">
          <mxGeometry x="30" width="240" height="30" as="geometry">
            <mxRectangle width="240" height="30" as="alternateBounds" />
          </mxGeometry>
        </mxCell>
        <mxCell id="yNZyAWRhLC5uPwF4M_fy-47" value="LoanProduct" style="shape=table;startSize=30;container=1;collapsible=1;childLayout=tableLayout;fixedRows=1;rowLines=0;fontStyle=1;align=center;resizeLast=1;labelBackgroundColor=none;fillColor=#F5AB50;strokeColor=#909090;fontColor=#1A1A1A;" parent="1" vertex="1">
          <mxGeometry x="-410" y="-180" width="270" height="160" as="geometry" />
        </mxCell>
        <mxCell id="yNZyAWRhLC5uPwF4M_fy-48" value="" style="shape=partialRectangle;collapsible=0;dropTarget=0;pointerEvents=0;fillColor=none;points=[[0,0.5],[1,0.5]];portConstraint=eastwest;top=0;left=0;right=0;bottom=1;labelBackgroundColor=none;strokeColor=#909090;fontColor=#1A1A1A;" parent="yNZyAWRhLC5uPwF4M_fy-47" vertex="1">
          <mxGeometry y="30" width="270" height="30" as="geometry" />
        </mxCell>
        <mxCell id="yNZyAWRhLC5uPwF4M_fy-49" value="PK" style="shape=partialRectangle;overflow=hidden;connectable=0;fillColor=none;top=0;left=0;bottom=0;right=0;fontStyle=1;labelBackgroundColor=none;strokeColor=#909090;fontColor=#1A1A1A;" parent="yNZyAWRhLC5uPwF4M_fy-48" vertex="1">
          <mxGeometry width="30" height="30" as="geometry">
            <mxRectangle width="30" height="30" as="alternateBounds" />
          </mxGeometry>
        </mxCell>
        <mxCell id="yNZyAWRhLC5uPwF4M_fy-50" value="LoanProductID  int NOT NULL " style="shape=partialRectangle;overflow=hidden;connectable=0;fillColor=none;top=0;left=0;bottom=0;right=0;align=left;spacingLeft=6;fontStyle=5;labelBackgroundColor=none;strokeColor=#909090;fontColor=#1A1A1A;" parent="yNZyAWRhLC5uPwF4M_fy-48" vertex="1">
          <mxGeometry x="30" width="240" height="30" as="geometry">
            <mxRectangle width="240" height="30" as="alternateBounds" />
          </mxGeometry>
        </mxCell>
        <mxCell id="yNZyAWRhLC5uPwF4M_fy-51" value="" style="shape=partialRectangle;collapsible=0;dropTarget=0;pointerEvents=0;fillColor=none;points=[[0,0.5],[1,0.5]];portConstraint=eastwest;top=0;left=0;right=0;bottom=0;labelBackgroundColor=none;strokeColor=#909090;fontColor=#1A1A1A;" parent="yNZyAWRhLC5uPwF4M_fy-47" vertex="1">
          <mxGeometry y="60" width="270" height="30" as="geometry" />
        </mxCell>
        <mxCell id="yNZyAWRhLC5uPwF4M_fy-52" value="" style="shape=partialRectangle;overflow=hidden;connectable=0;fillColor=none;top=0;left=0;bottom=0;right=0;labelBackgroundColor=none;strokeColor=#909090;fontColor=#1A1A1A;" parent="yNZyAWRhLC5uPwF4M_fy-51" vertex="1">
          <mxGeometry width="30" height="30" as="geometry">
            <mxRectangle width="30" height="30" as="alternateBounds" />
          </mxGeometry>
        </mxCell>
        <mxCell id="yNZyAWRhLC5uPwF4M_fy-53" value="LoanTypeName char(50) NOT NULL" style="shape=partialRectangle;overflow=hidden;connectable=0;fillColor=none;top=0;left=0;bottom=0;right=0;align=left;spacingLeft=6;labelBackgroundColor=none;strokeColor=#909090;fontColor=#1A1A1A;" parent="yNZyAWRhLC5uPwF4M_fy-51" vertex="1">
          <mxGeometry x="30" width="240" height="30" as="geometry">
            <mxRectangle width="240" height="30" as="alternateBounds" />
          </mxGeometry>
        </mxCell>
        <mxCell id="yNZyAWRhLC5uPwF4M_fy-54" value="" style="shape=partialRectangle;collapsible=0;dropTarget=0;pointerEvents=0;fillColor=none;points=[[0,0.5],[1,0.5]];portConstraint=eastwest;top=0;left=0;right=0;bottom=0;labelBackgroundColor=none;strokeColor=#909090;fontColor=#1A1A1A;" parent="yNZyAWRhLC5uPwF4M_fy-47" vertex="1">
          <mxGeometry y="90" width="270" height="30" as="geometry" />
        </mxCell>
        <mxCell id="yNZyAWRhLC5uPwF4M_fy-55" value="" style="shape=partialRectangle;overflow=hidden;connectable=0;fillColor=none;top=0;left=0;bottom=0;right=0;labelBackgroundColor=none;strokeColor=#909090;fontColor=#1A1A1A;" parent="yNZyAWRhLC5uPwF4M_fy-54" vertex="1">
          <mxGeometry width="30" height="30" as="geometry">
            <mxRectangle width="30" height="30" as="alternateBounds" />
          </mxGeometry>
        </mxCell>
        <mxCell id="yNZyAWRhLC5uPwF4M_fy-56" value="InterestRate char(50) NOT NULL" style="shape=partialRectangle;overflow=hidden;connectable=0;fillColor=none;top=0;left=0;bottom=0;right=0;align=left;spacingLeft=6;labelBackgroundColor=none;strokeColor=#909090;fontColor=#1A1A1A;" parent="yNZyAWRhLC5uPwF4M_fy-54" vertex="1">
          <mxGeometry x="30" width="240" height="30" as="geometry">
            <mxRectangle width="240" height="30" as="alternateBounds" />
          </mxGeometry>
        </mxCell>
        <mxCell id="yNZyAWRhLC5uPwF4M_fy-57" value="" style="shape=partialRectangle;collapsible=0;dropTarget=0;pointerEvents=0;fillColor=none;points=[[0,0.5],[1,0.5]];portConstraint=eastwest;top=0;left=0;right=0;bottom=0;labelBackgroundColor=none;strokeColor=#909090;fontColor=#1A1A1A;" parent="yNZyAWRhLC5uPwF4M_fy-47" vertex="1">
          <mxGeometry y="120" width="270" height="30" as="geometry" />
        </mxCell>
        <mxCell id="yNZyAWRhLC5uPwF4M_fy-58" value="" style="shape=partialRectangle;overflow=hidden;connectable=0;fillColor=none;top=0;left=0;bottom=0;right=0;labelBackgroundColor=none;strokeColor=#909090;fontColor=#1A1A1A;" parent="yNZyAWRhLC5uPwF4M_fy-57" vertex="1">
          <mxGeometry width="30" height="30" as="geometry">
            <mxRectangle width="30" height="30" as="alternateBounds" />
          </mxGeometry>
        </mxCell>
        <mxCell id="yNZyAWRhLC5uPwF4M_fy-59" value="LoanTerm char(50) NOT NULL" style="shape=partialRectangle;overflow=hidden;connectable=0;fillColor=none;top=0;left=0;bottom=0;right=0;align=left;spacingLeft=6;labelBackgroundColor=none;strokeColor=#909090;fontColor=#1A1A1A;" parent="yNZyAWRhLC5uPwF4M_fy-57" vertex="1">
          <mxGeometry x="30" width="240" height="30" as="geometry">
            <mxRectangle width="240" height="30" as="alternateBounds" />
          </mxGeometry>
        </mxCell>
        <mxCell id="yNZyAWRhLC5uPwF4M_fy-65" value="LoanApplication" style="shape=table;startSize=30;container=1;collapsible=1;childLayout=tableLayout;fixedRows=1;rowLines=0;fontStyle=1;align=center;resizeLast=1;labelBackgroundColor=none;fillColor=#F5AB50;strokeColor=#909090;fontColor=#1A1A1A;" parent="1" vertex="1">
          <mxGeometry x="-380" y="40" width="270" height="180" as="geometry" />
        </mxCell>
        <mxCell id="yNZyAWRhLC5uPwF4M_fy-66" value="" style="shape=partialRectangle;collapsible=0;dropTarget=0;pointerEvents=0;fillColor=none;points=[[0,0.5],[1,0.5]];portConstraint=eastwest;top=0;left=0;right=0;bottom=1;labelBackgroundColor=none;strokeColor=#909090;fontColor=#1A1A1A;" parent="yNZyAWRhLC5uPwF4M_fy-65" vertex="1">
          <mxGeometry y="30" width="270" height="30" as="geometry" />
        </mxCell>
        <mxCell id="yNZyAWRhLC5uPwF4M_fy-67" value="PK" style="shape=partialRectangle;overflow=hidden;connectable=0;fillColor=none;top=0;left=0;bottom=0;right=0;fontStyle=1;labelBackgroundColor=none;strokeColor=#909090;fontColor=#1A1A1A;" parent="yNZyAWRhLC5uPwF4M_fy-66" vertex="1">
          <mxGeometry width="30" height="30" as="geometry">
            <mxRectangle width="30" height="30" as="alternateBounds" />
          </mxGeometry>
        </mxCell>
        <mxCell id="yNZyAWRhLC5uPwF4M_fy-68" value="ApplicationID int NOT NULL " style="shape=partialRectangle;overflow=hidden;connectable=0;fillColor=none;top=0;left=0;bottom=0;right=0;align=left;spacingLeft=6;fontStyle=5;labelBackgroundColor=none;strokeColor=#909090;fontColor=#1A1A1A;" parent="yNZyAWRhLC5uPwF4M_fy-66" vertex="1">
          <mxGeometry x="30" width="240" height="30" as="geometry">
            <mxRectangle width="240" height="30" as="alternateBounds" />
          </mxGeometry>
        </mxCell>
        <mxCell id="yNZyAWRhLC5uPwF4M_fy-69" value="" style="shape=partialRectangle;collapsible=0;dropTarget=0;pointerEvents=0;fillColor=none;points=[[0,0.5],[1,0.5]];portConstraint=eastwest;top=0;left=0;right=0;bottom=0;labelBackgroundColor=none;strokeColor=#909090;fontColor=#1A1A1A;" parent="yNZyAWRhLC5uPwF4M_fy-65" vertex="1">
          <mxGeometry y="60" width="270" height="30" as="geometry" />
        </mxCell>
        <mxCell id="yNZyAWRhLC5uPwF4M_fy-70" value="FK" style="shape=partialRectangle;overflow=hidden;connectable=0;fillColor=none;top=0;left=0;bottom=0;right=0;labelBackgroundColor=none;strokeColor=#909090;fontColor=#1A1A1A;" parent="yNZyAWRhLC5uPwF4M_fy-69" vertex="1">
          <mxGeometry width="30" height="30" as="geometry">
            <mxRectangle width="30" height="30" as="alternateBounds" />
          </mxGeometry>
        </mxCell>
        <mxCell id="yNZyAWRhLC5uPwF4M_fy-71" value="CustomerID char(50) NOT NULL" style="shape=partialRectangle;overflow=hidden;connectable=0;fillColor=none;top=0;left=0;bottom=0;right=0;align=left;spacingLeft=6;labelBackgroundColor=none;strokeColor=#909090;fontColor=#1A1A1A;" parent="yNZyAWRhLC5uPwF4M_fy-69" vertex="1">
          <mxGeometry x="30" width="240" height="30" as="geometry">
            <mxRectangle width="240" height="30" as="alternateBounds" />
          </mxGeometry>
        </mxCell>
        <mxCell id="yNZyAWRhLC5uPwF4M_fy-72" value="" style="shape=partialRectangle;collapsible=0;dropTarget=0;pointerEvents=0;fillColor=none;points=[[0,0.5],[1,0.5]];portConstraint=eastwest;top=0;left=0;right=0;bottom=0;labelBackgroundColor=none;strokeColor=#909090;fontColor=#1A1A1A;" parent="yNZyAWRhLC5uPwF4M_fy-65" vertex="1">
          <mxGeometry y="90" width="270" height="30" as="geometry" />
        </mxCell>
        <mxCell id="yNZyAWRhLC5uPwF4M_fy-73" value="FK" style="shape=partialRectangle;overflow=hidden;connectable=0;fillColor=none;top=0;left=0;bottom=0;right=0;labelBackgroundColor=none;strokeColor=#909090;fontColor=#1A1A1A;" parent="yNZyAWRhLC5uPwF4M_fy-72" vertex="1">
          <mxGeometry width="30" height="30" as="geometry">
            <mxRectangle width="30" height="30" as="alternateBounds" />
          </mxGeometry>
        </mxCell>
        <mxCell id="yNZyAWRhLC5uPwF4M_fy-74" value="LoanProductID char(50) NOT NULL" style="shape=partialRectangle;overflow=hidden;connectable=0;fillColor=none;top=0;left=0;bottom=0;right=0;align=left;spacingLeft=6;labelBackgroundColor=none;strokeColor=#909090;fontColor=#1A1A1A;" parent="yNZyAWRhLC5uPwF4M_fy-72" vertex="1">
          <mxGeometry x="30" width="240" height="30" as="geometry">
            <mxRectangle width="240" height="30" as="alternateBounds" />
          </mxGeometry>
        </mxCell>
        <mxCell id="yNZyAWRhLC5uPwF4M_fy-75" value="" style="shape=partialRectangle;collapsible=0;dropTarget=0;pointerEvents=0;fillColor=none;points=[[0,0.5],[1,0.5]];portConstraint=eastwest;top=0;left=0;right=0;bottom=0;labelBackgroundColor=none;strokeColor=#909090;fontColor=#1A1A1A;" parent="yNZyAWRhLC5uPwF4M_fy-65" vertex="1">
          <mxGeometry y="120" width="270" height="30" as="geometry" />
        </mxCell>
        <mxCell id="yNZyAWRhLC5uPwF4M_fy-76" value="" style="shape=partialRectangle;overflow=hidden;connectable=0;fillColor=none;top=0;left=0;bottom=0;right=0;labelBackgroundColor=none;strokeColor=#909090;fontColor=#1A1A1A;" parent="yNZyAWRhLC5uPwF4M_fy-75" vertex="1">
          <mxGeometry width="30" height="30" as="geometry">
            <mxRectangle width="30" height="30" as="alternateBounds" />
          </mxGeometry>
        </mxCell>
        <mxCell id="yNZyAWRhLC5uPwF4M_fy-77" value="LoanAmountRequested char(50) NOT NULL" style="shape=partialRectangle;overflow=hidden;connectable=0;fillColor=none;top=0;left=0;bottom=0;right=0;align=left;spacingLeft=6;labelBackgroundColor=none;strokeColor=#909090;fontColor=#1A1A1A;" parent="yNZyAWRhLC5uPwF4M_fy-75" vertex="1">
          <mxGeometry x="30" width="240" height="30" as="geometry">
            <mxRectangle width="240" height="30" as="alternateBounds" />
          </mxGeometry>
        </mxCell>
        <mxCell id="yNZyAWRhLC5uPwF4M_fy-78" value="" style="shape=tableRow;horizontal=0;startSize=0;swimlaneHead=0;swimlaneBody=0;fillColor=none;collapsible=0;dropTarget=0;points=[[0,0.5],[1,0.5]];portConstraint=eastwest;top=0;left=0;right=0;bottom=0;labelBackgroundColor=none;strokeColor=#909090;fontColor=#1A1A1A;" parent="yNZyAWRhLC5uPwF4M_fy-65" vertex="1">
          <mxGeometry y="150" width="270" height="30" as="geometry" />
        </mxCell>
        <mxCell id="yNZyAWRhLC5uPwF4M_fy-79" value="" style="shape=partialRectangle;connectable=0;fillColor=none;top=0;left=0;bottom=0;right=0;editable=1;overflow=hidden;labelBackgroundColor=none;strokeColor=#909090;fontColor=#1A1A1A;" parent="yNZyAWRhLC5uPwF4M_fy-78" vertex="1">
          <mxGeometry width="30" height="30" as="geometry">
            <mxRectangle width="30" height="30" as="alternateBounds" />
          </mxGeometry>
        </mxCell>
        <mxCell id="yNZyAWRhLC5uPwF4M_fy-80" value="ApplicationDate  char(50) NOT NUL" style="shape=partialRectangle;connectable=0;fillColor=none;top=0;left=0;bottom=0;right=0;align=left;spacingLeft=6;overflow=hidden;labelBackgroundColor=none;strokeColor=#909090;fontColor=#1A1A1A;" parent="yNZyAWRhLC5uPwF4M_fy-78" vertex="1">
          <mxGeometry x="30" width="240" height="30" as="geometry">
            <mxRectangle width="240" height="30" as="alternateBounds" />
          </mxGeometry>
        </mxCell>
        <mxCell id="yNZyAWRhLC5uPwF4M_fy-96" value="LoanRepayment" style="shape=table;startSize=30;container=1;collapsible=1;childLayout=tableLayout;fixedRows=1;rowLines=0;fontStyle=1;align=center;resizeLast=1;labelBackgroundColor=none;fillColor=#F5AB50;strokeColor=#909090;fontColor=#1A1A1A;" parent="1" vertex="1">
          <mxGeometry x="360" y="310" width="270" height="160" as="geometry" />
        </mxCell>
        <mxCell id="yNZyAWRhLC5uPwF4M_fy-97" value="" style="shape=partialRectangle;collapsible=0;dropTarget=0;pointerEvents=0;fillColor=none;points=[[0,0.5],[1,0.5]];portConstraint=eastwest;top=0;left=0;right=0;bottom=1;labelBackgroundColor=none;strokeColor=#909090;fontColor=#1A1A1A;" parent="yNZyAWRhLC5uPwF4M_fy-96" vertex="1">
          <mxGeometry y="30" width="270" height="30" as="geometry" />
        </mxCell>
        <mxCell id="yNZyAWRhLC5uPwF4M_fy-98" value="PK" style="shape=partialRectangle;overflow=hidden;connectable=0;fillColor=none;top=0;left=0;bottom=0;right=0;fontStyle=1;labelBackgroundColor=none;strokeColor=#909090;fontColor=#1A1A1A;" parent="yNZyAWRhLC5uPwF4M_fy-97" vertex="1">
          <mxGeometry width="30" height="30" as="geometry">
            <mxRectangle width="30" height="30" as="alternateBounds" />
          </mxGeometry>
        </mxCell>
        <mxCell id="yNZyAWRhLC5uPwF4M_fy-99" value="RepaymentID  int NOT NULL " style="shape=partialRectangle;overflow=hidden;connectable=0;fillColor=none;top=0;left=0;bottom=0;right=0;align=left;spacingLeft=6;fontStyle=5;labelBackgroundColor=none;strokeColor=#909090;fontColor=#1A1A1A;" parent="yNZyAWRhLC5uPwF4M_fy-97" vertex="1">
          <mxGeometry x="30" width="240" height="30" as="geometry">
            <mxRectangle width="240" height="30" as="alternateBounds" />
          </mxGeometry>
        </mxCell>
        <mxCell id="yNZyAWRhLC5uPwF4M_fy-100" value="" style="shape=partialRectangle;collapsible=0;dropTarget=0;pointerEvents=0;fillColor=none;points=[[0,0.5],[1,0.5]];portConstraint=eastwest;top=0;left=0;right=0;bottom=0;labelBackgroundColor=none;strokeColor=#909090;fontColor=#1A1A1A;" parent="yNZyAWRhLC5uPwF4M_fy-96" vertex="1">
          <mxGeometry y="60" width="270" height="30" as="geometry" />
        </mxCell>
        <mxCell id="yNZyAWRhLC5uPwF4M_fy-101" value="FK" style="shape=partialRectangle;overflow=hidden;connectable=0;fillColor=none;top=0;left=0;bottom=0;right=0;labelBackgroundColor=none;strokeColor=#909090;fontColor=#1A1A1A;" parent="yNZyAWRhLC5uPwF4M_fy-100" vertex="1">
          <mxGeometry width="30" height="30" as="geometry">
            <mxRectangle width="30" height="30" as="alternateBounds" />
          </mxGeometry>
        </mxCell>
        <mxCell id="yNZyAWRhLC5uPwF4M_fy-102" value="LoanID char(50) NOT NULL" style="shape=partialRectangle;overflow=hidden;connectable=0;fillColor=none;top=0;left=0;bottom=0;right=0;align=left;spacingLeft=6;labelBackgroundColor=none;strokeColor=#909090;fontColor=#1A1A1A;" parent="yNZyAWRhLC5uPwF4M_fy-100" vertex="1">
          <mxGeometry x="30" width="240" height="30" as="geometry">
            <mxRectangle width="240" height="30" as="alternateBounds" />
          </mxGeometry>
        </mxCell>
        <mxCell id="yNZyAWRhLC5uPwF4M_fy-103" value="" style="shape=partialRectangle;collapsible=0;dropTarget=0;pointerEvents=0;fillColor=none;points=[[0,0.5],[1,0.5]];portConstraint=eastwest;top=0;left=0;right=0;bottom=0;labelBackgroundColor=none;strokeColor=#909090;fontColor=#1A1A1A;" parent="yNZyAWRhLC5uPwF4M_fy-96" vertex="1">
          <mxGeometry y="90" width="270" height="30" as="geometry" />
        </mxCell>
        <mxCell id="yNZyAWRhLC5uPwF4M_fy-104" value="" style="shape=partialRectangle;overflow=hidden;connectable=0;fillColor=none;top=0;left=0;bottom=0;right=0;labelBackgroundColor=none;strokeColor=#909090;fontColor=#1A1A1A;" parent="yNZyAWRhLC5uPwF4M_fy-103" vertex="1">
          <mxGeometry width="30" height="30" as="geometry">
            <mxRectangle width="30" height="30" as="alternateBounds" />
          </mxGeometry>
        </mxCell>
        <mxCell id="yNZyAWRhLC5uPwF4M_fy-105" value="RepaymentDate char(50) NOT NULL" style="shape=partialRectangle;overflow=hidden;connectable=0;fillColor=none;top=0;left=0;bottom=0;right=0;align=left;spacingLeft=6;labelBackgroundColor=none;strokeColor=#909090;fontColor=#1A1A1A;" parent="yNZyAWRhLC5uPwF4M_fy-103" vertex="1">
          <mxGeometry x="30" width="240" height="30" as="geometry">
            <mxRectangle width="240" height="30" as="alternateBounds" />
          </mxGeometry>
        </mxCell>
        <mxCell id="yNZyAWRhLC5uPwF4M_fy-106" value="" style="shape=partialRectangle;collapsible=0;dropTarget=0;pointerEvents=0;fillColor=none;points=[[0,0.5],[1,0.5]];portConstraint=eastwest;top=0;left=0;right=0;bottom=0;labelBackgroundColor=none;strokeColor=#909090;fontColor=#1A1A1A;" parent="yNZyAWRhLC5uPwF4M_fy-96" vertex="1">
          <mxGeometry y="120" width="270" height="30" as="geometry" />
        </mxCell>
        <mxCell id="yNZyAWRhLC5uPwF4M_fy-107" value="" style="shape=partialRectangle;overflow=hidden;connectable=0;fillColor=none;top=0;left=0;bottom=0;right=0;labelBackgroundColor=none;strokeColor=#909090;fontColor=#1A1A1A;" parent="yNZyAWRhLC5uPwF4M_fy-106" vertex="1">
          <mxGeometry width="30" height="30" as="geometry">
            <mxRectangle width="30" height="30" as="alternateBounds" />
          </mxGeometry>
        </mxCell>
        <mxCell id="yNZyAWRhLC5uPwF4M_fy-108" value="RepaymentAmount char(50) NOT NULL" style="shape=partialRectangle;overflow=hidden;connectable=0;fillColor=none;top=0;left=0;bottom=0;right=0;align=left;spacingLeft=6;labelBackgroundColor=none;strokeColor=#909090;fontColor=#1A1A1A;" parent="yNZyAWRhLC5uPwF4M_fy-106" vertex="1">
          <mxGeometry x="30" width="240" height="30" as="geometry">
            <mxRectangle width="240" height="30" as="alternateBounds" />
          </mxGeometry>
        </mxCell>
        <mxCell id="yNZyAWRhLC5uPwF4M_fy-109" value="Branch" style="shape=table;startSize=30;container=1;collapsible=1;childLayout=tableLayout;fixedRows=1;rowLines=0;fontStyle=1;align=center;resizeLast=1;labelBackgroundColor=none;fillColor=#F5AB50;strokeColor=#909090;fontColor=#1A1A1A;" parent="1" vertex="1">
          <mxGeometry x="800" y="370" width="270" height="130" as="geometry" />
        </mxCell>
        <mxCell id="yNZyAWRhLC5uPwF4M_fy-110" value="" style="shape=partialRectangle;collapsible=0;dropTarget=0;pointerEvents=0;fillColor=none;points=[[0,0.5],[1,0.5]];portConstraint=eastwest;top=0;left=0;right=0;bottom=1;labelBackgroundColor=none;strokeColor=#909090;fontColor=#1A1A1A;" parent="yNZyAWRhLC5uPwF4M_fy-109" vertex="1">
          <mxGeometry y="30" width="270" height="30" as="geometry" />
        </mxCell>
        <mxCell id="yNZyAWRhLC5uPwF4M_fy-111" value="PK" style="shape=partialRectangle;overflow=hidden;connectable=0;fillColor=none;top=0;left=0;bottom=0;right=0;fontStyle=1;labelBackgroundColor=none;strokeColor=#909090;fontColor=#1A1A1A;" parent="yNZyAWRhLC5uPwF4M_fy-110" vertex="1">
          <mxGeometry width="30" height="30" as="geometry">
            <mxRectangle width="30" height="30" as="alternateBounds" />
          </mxGeometry>
        </mxCell>
        <mxCell id="yNZyAWRhLC5uPwF4M_fy-112" value="BranchID int NOT NULL " style="shape=partialRectangle;overflow=hidden;connectable=0;fillColor=none;top=0;left=0;bottom=0;right=0;align=left;spacingLeft=6;fontStyle=5;labelBackgroundColor=none;strokeColor=#909090;fontColor=#1A1A1A;" parent="yNZyAWRhLC5uPwF4M_fy-110" vertex="1">
          <mxGeometry x="30" width="240" height="30" as="geometry">
            <mxRectangle width="240" height="30" as="alternateBounds" />
          </mxGeometry>
        </mxCell>
        <mxCell id="yNZyAWRhLC5uPwF4M_fy-113" value="" style="shape=partialRectangle;collapsible=0;dropTarget=0;pointerEvents=0;fillColor=none;points=[[0,0.5],[1,0.5]];portConstraint=eastwest;top=0;left=0;right=0;bottom=0;labelBackgroundColor=none;strokeColor=#909090;fontColor=#1A1A1A;" parent="yNZyAWRhLC5uPwF4M_fy-109" vertex="1">
          <mxGeometry y="60" width="270" height="30" as="geometry" />
        </mxCell>
        <mxCell id="yNZyAWRhLC5uPwF4M_fy-114" value="" style="shape=partialRectangle;overflow=hidden;connectable=0;fillColor=none;top=0;left=0;bottom=0;right=0;labelBackgroundColor=none;strokeColor=#909090;fontColor=#1A1A1A;" parent="yNZyAWRhLC5uPwF4M_fy-113" vertex="1">
          <mxGeometry width="30" height="30" as="geometry">
            <mxRectangle width="30" height="30" as="alternateBounds" />
          </mxGeometry>
        </mxCell>
        <mxCell id="yNZyAWRhLC5uPwF4M_fy-115" value="BranchName char(50) NOT NULL" style="shape=partialRectangle;overflow=hidden;connectable=0;fillColor=none;top=0;left=0;bottom=0;right=0;align=left;spacingLeft=6;labelBackgroundColor=none;strokeColor=#909090;fontColor=#1A1A1A;" parent="yNZyAWRhLC5uPwF4M_fy-113" vertex="1">
          <mxGeometry x="30" width="240" height="30" as="geometry">
            <mxRectangle width="240" height="30" as="alternateBounds" />
          </mxGeometry>
        </mxCell>
        <mxCell id="yNZyAWRhLC5uPwF4M_fy-116" value="" style="shape=partialRectangle;collapsible=0;dropTarget=0;pointerEvents=0;fillColor=none;points=[[0,0.5],[1,0.5]];portConstraint=eastwest;top=0;left=0;right=0;bottom=0;labelBackgroundColor=none;strokeColor=#909090;fontColor=#1A1A1A;" parent="yNZyAWRhLC5uPwF4M_fy-109" vertex="1">
          <mxGeometry y="90" width="270" height="30" as="geometry" />
        </mxCell>
        <mxCell id="yNZyAWRhLC5uPwF4M_fy-117" value="" style="shape=partialRectangle;overflow=hidden;connectable=0;fillColor=none;top=0;left=0;bottom=0;right=0;labelBackgroundColor=none;strokeColor=#909090;fontColor=#1A1A1A;" parent="yNZyAWRhLC5uPwF4M_fy-116" vertex="1">
          <mxGeometry width="30" height="30" as="geometry">
            <mxRectangle width="30" height="30" as="alternateBounds" />
          </mxGeometry>
        </mxCell>
        <mxCell id="yNZyAWRhLC5uPwF4M_fy-118" value="Location char(50) NOT NULL" style="shape=partialRectangle;overflow=hidden;connectable=0;fillColor=none;top=0;left=0;bottom=0;right=0;align=left;spacingLeft=6;labelBackgroundColor=none;strokeColor=#909090;fontColor=#1A1A1A;" parent="yNZyAWRhLC5uPwF4M_fy-116" vertex="1">
          <mxGeometry x="30" width="240" height="30" as="geometry">
            <mxRectangle width="240" height="30" as="alternateBounds" />
          </mxGeometry>
        </mxCell>
        <mxCell id="yNZyAWRhLC5uPwF4M_fy-122" value="Employee" style="shape=table;startSize=30;container=1;collapsible=1;childLayout=tableLayout;fixedRows=1;rowLines=0;fontStyle=1;align=center;resizeLast=1;labelBackgroundColor=none;fillColor=#F5AB50;strokeColor=#909090;fontColor=#1A1A1A;" parent="1" vertex="1">
          <mxGeometry x="800" y="20" width="270" height="300" as="geometry" />
        </mxCell>
        <mxCell id="yNZyAWRhLC5uPwF4M_fy-123" value="" style="shape=partialRectangle;collapsible=0;dropTarget=0;pointerEvents=0;fillColor=none;points=[[0,0.5],[1,0.5]];portConstraint=eastwest;top=0;left=0;right=0;bottom=1;labelBackgroundColor=none;strokeColor=#909090;fontColor=#1A1A1A;" parent="yNZyAWRhLC5uPwF4M_fy-122" vertex="1">
          <mxGeometry y="30" width="270" height="30" as="geometry" />
        </mxCell>
        <mxCell id="yNZyAWRhLC5uPwF4M_fy-124" value="PK" style="shape=partialRectangle;overflow=hidden;connectable=0;fillColor=none;top=0;left=0;bottom=0;right=0;fontStyle=1;labelBackgroundColor=none;strokeColor=#909090;fontColor=#1A1A1A;" parent="yNZyAWRhLC5uPwF4M_fy-123" vertex="1">
          <mxGeometry width="30" height="30" as="geometry">
            <mxRectangle width="30" height="30" as="alternateBounds" />
          </mxGeometry>
        </mxCell>
        <mxCell id="yNZyAWRhLC5uPwF4M_fy-125" value="EmployeeID int NOT NULL " style="shape=partialRectangle;overflow=hidden;connectable=0;fillColor=none;top=0;left=0;bottom=0;right=0;align=left;spacingLeft=6;fontStyle=5;labelBackgroundColor=none;strokeColor=#909090;fontColor=#1A1A1A;" parent="yNZyAWRhLC5uPwF4M_fy-123" vertex="1">
          <mxGeometry x="30" width="240" height="30" as="geometry">
            <mxRectangle width="240" height="30" as="alternateBounds" />
          </mxGeometry>
        </mxCell>
        <mxCell id="yNZyAWRhLC5uPwF4M_fy-126" value="" style="shape=partialRectangle;collapsible=0;dropTarget=0;pointerEvents=0;fillColor=none;points=[[0,0.5],[1,0.5]];portConstraint=eastwest;top=0;left=0;right=0;bottom=0;labelBackgroundColor=none;strokeColor=#909090;fontColor=#1A1A1A;" parent="yNZyAWRhLC5uPwF4M_fy-122" vertex="1">
          <mxGeometry y="60" width="270" height="30" as="geometry" />
        </mxCell>
        <mxCell id="yNZyAWRhLC5uPwF4M_fy-127" value="" style="shape=partialRectangle;overflow=hidden;connectable=0;fillColor=none;top=0;left=0;bottom=0;right=0;labelBackgroundColor=none;strokeColor=#909090;fontColor=#1A1A1A;" parent="yNZyAWRhLC5uPwF4M_fy-126" vertex="1">
          <mxGeometry width="30" height="30" as="geometry">
            <mxRectangle width="30" height="30" as="alternateBounds" />
          </mxGeometry>
        </mxCell>
        <mxCell id="yNZyAWRhLC5uPwF4M_fy-128" value="FirstName char(50) NOT NULL" style="shape=partialRectangle;overflow=hidden;connectable=0;fillColor=none;top=0;left=0;bottom=0;right=0;align=left;spacingLeft=6;labelBackgroundColor=none;strokeColor=#909090;fontColor=#1A1A1A;" parent="yNZyAWRhLC5uPwF4M_fy-126" vertex="1">
          <mxGeometry x="30" width="240" height="30" as="geometry">
            <mxRectangle width="240" height="30" as="alternateBounds" />
          </mxGeometry>
        </mxCell>
        <mxCell id="yNZyAWRhLC5uPwF4M_fy-129" value="" style="shape=partialRectangle;collapsible=0;dropTarget=0;pointerEvents=0;fillColor=none;points=[[0,0.5],[1,0.5]];portConstraint=eastwest;top=0;left=0;right=0;bottom=0;labelBackgroundColor=none;strokeColor=#909090;fontColor=#1A1A1A;" parent="yNZyAWRhLC5uPwF4M_fy-122" vertex="1">
          <mxGeometry y="90" width="270" height="30" as="geometry" />
        </mxCell>
        <mxCell id="yNZyAWRhLC5uPwF4M_fy-130" value="" style="shape=partialRectangle;overflow=hidden;connectable=0;fillColor=none;top=0;left=0;bottom=0;right=0;labelBackgroundColor=none;strokeColor=#909090;fontColor=#1A1A1A;" parent="yNZyAWRhLC5uPwF4M_fy-129" vertex="1">
          <mxGeometry width="30" height="30" as="geometry">
            <mxRectangle width="30" height="30" as="alternateBounds" />
          </mxGeometry>
        </mxCell>
        <mxCell id="yNZyAWRhLC5uPwF4M_fy-131" value="MiddleName char(50) NOT NULL" style="shape=partialRectangle;overflow=hidden;connectable=0;fillColor=none;top=0;left=0;bottom=0;right=0;align=left;spacingLeft=6;labelBackgroundColor=none;strokeColor=#909090;fontColor=#1A1A1A;" parent="yNZyAWRhLC5uPwF4M_fy-129" vertex="1">
          <mxGeometry x="30" width="240" height="30" as="geometry">
            <mxRectangle width="240" height="30" as="alternateBounds" />
          </mxGeometry>
        </mxCell>
        <mxCell id="yNZyAWRhLC5uPwF4M_fy-132" value="" style="shape=partialRectangle;collapsible=0;dropTarget=0;pointerEvents=0;fillColor=none;points=[[0,0.5],[1,0.5]];portConstraint=eastwest;top=0;left=0;right=0;bottom=0;labelBackgroundColor=none;strokeColor=#909090;fontColor=#1A1A1A;" parent="yNZyAWRhLC5uPwF4M_fy-122" vertex="1">
          <mxGeometry y="120" width="270" height="30" as="geometry" />
        </mxCell>
        <mxCell id="yNZyAWRhLC5uPwF4M_fy-133" value="" style="shape=partialRectangle;overflow=hidden;connectable=0;fillColor=none;top=0;left=0;bottom=0;right=0;labelBackgroundColor=none;strokeColor=#909090;fontColor=#1A1A1A;" parent="yNZyAWRhLC5uPwF4M_fy-132" vertex="1">
          <mxGeometry width="30" height="30" as="geometry">
            <mxRectangle width="30" height="30" as="alternateBounds" />
          </mxGeometry>
        </mxCell>
        <mxCell id="yNZyAWRhLC5uPwF4M_fy-134" value="LastName char(50) NOT NULL" style="shape=partialRectangle;overflow=hidden;connectable=0;fillColor=none;top=0;left=0;bottom=0;right=0;align=left;spacingLeft=6;labelBackgroundColor=none;strokeColor=#909090;fontColor=#1A1A1A;" parent="yNZyAWRhLC5uPwF4M_fy-132" vertex="1">
          <mxGeometry x="30" width="240" height="30" as="geometry">
            <mxRectangle width="240" height="30" as="alternateBounds" />
          </mxGeometry>
        </mxCell>
        <mxCell id="yNZyAWRhLC5uPwF4M_fy-135" value="" style="shape=partialRectangle;collapsible=0;dropTarget=0;pointerEvents=0;fillColor=none;points=[[0,0.5],[1,0.5]];portConstraint=eastwest;top=0;left=0;right=0;bottom=0;labelBackgroundColor=none;strokeColor=#909090;fontColor=#1A1A1A;" parent="yNZyAWRhLC5uPwF4M_fy-122" vertex="1">
          <mxGeometry y="150" width="270" height="30" as="geometry" />
        </mxCell>
        <mxCell id="yNZyAWRhLC5uPwF4M_fy-136" value="" style="shape=partialRectangle;overflow=hidden;connectable=0;fillColor=none;top=0;left=0;bottom=0;right=0;labelBackgroundColor=none;strokeColor=#909090;fontColor=#1A1A1A;" parent="yNZyAWRhLC5uPwF4M_fy-135" vertex="1">
          <mxGeometry width="30" height="30" as="geometry">
            <mxRectangle width="30" height="30" as="alternateBounds" />
          </mxGeometry>
        </mxCell>
        <mxCell id="yNZyAWRhLC5uPwF4M_fy-137" value="DateOfBirth char(50) NOT NULL" style="shape=partialRectangle;overflow=hidden;connectable=0;fillColor=none;top=0;left=0;bottom=0;right=0;align=left;spacingLeft=6;labelBackgroundColor=none;strokeColor=#909090;fontColor=#1A1A1A;" parent="yNZyAWRhLC5uPwF4M_fy-135" vertex="1">
          <mxGeometry x="30" width="240" height="30" as="geometry">
            <mxRectangle width="240" height="30" as="alternateBounds" />
          </mxGeometry>
        </mxCell>
        <mxCell id="yNZyAWRhLC5uPwF4M_fy-138" value="" style="shape=partialRectangle;collapsible=0;dropTarget=0;pointerEvents=0;fillColor=none;points=[[0,0.5],[1,0.5]];portConstraint=eastwest;top=0;left=0;right=0;bottom=0;labelBackgroundColor=none;strokeColor=#909090;fontColor=#1A1A1A;" parent="yNZyAWRhLC5uPwF4M_fy-122" vertex="1">
          <mxGeometry y="180" width="270" height="30" as="geometry" />
        </mxCell>
        <mxCell id="yNZyAWRhLC5uPwF4M_fy-139" value="" style="shape=partialRectangle;overflow=hidden;connectable=0;fillColor=none;top=0;left=0;bottom=0;right=0;labelBackgroundColor=none;strokeColor=#909090;fontColor=#1A1A1A;" parent="yNZyAWRhLC5uPwF4M_fy-138" vertex="1">
          <mxGeometry width="30" height="30" as="geometry">
            <mxRectangle width="30" height="30" as="alternateBounds" />
          </mxGeometry>
        </mxCell>
        <mxCell id="yNZyAWRhLC5uPwF4M_fy-140" value="Gender char(50) NOT NULL" style="shape=partialRectangle;overflow=hidden;connectable=0;fillColor=none;top=0;left=0;bottom=0;right=0;align=left;spacingLeft=6;labelBackgroundColor=none;strokeColor=#909090;fontColor=#1A1A1A;" parent="yNZyAWRhLC5uPwF4M_fy-138" vertex="1">
          <mxGeometry x="30" width="240" height="30" as="geometry">
            <mxRectangle width="240" height="30" as="alternateBounds" />
          </mxGeometry>
        </mxCell>
        <mxCell id="yNZyAWRhLC5uPwF4M_fy-141" value="" style="shape=partialRectangle;collapsible=0;dropTarget=0;pointerEvents=0;fillColor=none;points=[[0,0.5],[1,0.5]];portConstraint=eastwest;top=0;left=0;right=0;bottom=0;labelBackgroundColor=none;strokeColor=#909090;fontColor=#1A1A1A;" parent="yNZyAWRhLC5uPwF4M_fy-122" vertex="1">
          <mxGeometry y="210" width="270" height="30" as="geometry" />
        </mxCell>
        <mxCell id="yNZyAWRhLC5uPwF4M_fy-142" value="" style="shape=partialRectangle;overflow=hidden;connectable=0;fillColor=none;top=0;left=0;bottom=0;right=0;labelBackgroundColor=none;strokeColor=#909090;fontColor=#1A1A1A;" parent="yNZyAWRhLC5uPwF4M_fy-141" vertex="1">
          <mxGeometry width="30" height="30" as="geometry">
            <mxRectangle width="30" height="30" as="alternateBounds" />
          </mxGeometry>
        </mxCell>
        <mxCell id="yNZyAWRhLC5uPwF4M_fy-143" value="StaffID char(50) NOT NULL" style="shape=partialRectangle;overflow=hidden;connectable=0;fillColor=none;top=0;left=0;bottom=0;right=0;align=left;spacingLeft=6;labelBackgroundColor=none;strokeColor=#909090;fontColor=#1A1A1A;" parent="yNZyAWRhLC5uPwF4M_fy-141" vertex="1">
          <mxGeometry x="30" width="240" height="30" as="geometry">
            <mxRectangle width="240" height="30" as="alternateBounds" />
          </mxGeometry>
        </mxCell>
        <mxCell id="yNZyAWRhLC5uPwF4M_fy-144" value="" style="shape=partialRectangle;collapsible=0;dropTarget=0;pointerEvents=0;fillColor=none;points=[[0,0.5],[1,0.5]];portConstraint=eastwest;top=0;left=0;right=0;bottom=0;labelBackgroundColor=none;strokeColor=#909090;fontColor=#1A1A1A;" parent="yNZyAWRhLC5uPwF4M_fy-122" vertex="1">
          <mxGeometry y="240" width="270" height="30" as="geometry" />
        </mxCell>
        <mxCell id="yNZyAWRhLC5uPwF4M_fy-145" value="" style="shape=partialRectangle;overflow=hidden;connectable=0;fillColor=none;top=0;left=0;bottom=0;right=0;labelBackgroundColor=none;strokeColor=#909090;fontColor=#1A1A1A;" parent="yNZyAWRhLC5uPwF4M_fy-144" vertex="1">
          <mxGeometry width="30" height="30" as="geometry">
            <mxRectangle width="30" height="30" as="alternateBounds" />
          </mxGeometry>
        </mxCell>
        <mxCell id="yNZyAWRhLC5uPwF4M_fy-146" value="Department char(50) NOT NULL" style="shape=partialRectangle;overflow=hidden;connectable=0;fillColor=none;top=0;left=0;bottom=0;right=0;align=left;spacingLeft=6;labelBackgroundColor=none;strokeColor=#909090;fontColor=#1A1A1A;" parent="yNZyAWRhLC5uPwF4M_fy-144" vertex="1">
          <mxGeometry x="30" width="240" height="30" as="geometry">
            <mxRectangle width="240" height="30" as="alternateBounds" />
          </mxGeometry>
        </mxCell>
        <mxCell id="yNZyAWRhLC5uPwF4M_fy-147" value="" style="shape=partialRectangle;collapsible=0;dropTarget=0;pointerEvents=0;fillColor=none;points=[[0,0.5],[1,0.5]];portConstraint=eastwest;top=0;left=0;right=0;bottom=0;labelBackgroundColor=none;strokeColor=#909090;fontColor=#1A1A1A;" parent="yNZyAWRhLC5uPwF4M_fy-122" vertex="1">
          <mxGeometry y="270" width="270" height="30" as="geometry" />
        </mxCell>
        <mxCell id="yNZyAWRhLC5uPwF4M_fy-148" value="" style="shape=partialRectangle;overflow=hidden;connectable=0;fillColor=none;top=0;left=0;bottom=0;right=0;labelBackgroundColor=none;strokeColor=#909090;fontColor=#1A1A1A;" parent="yNZyAWRhLC5uPwF4M_fy-147" vertex="1">
          <mxGeometry width="30" height="30" as="geometry">
            <mxRectangle width="30" height="30" as="alternateBounds" />
          </mxGeometry>
        </mxCell>
        <mxCell id="yNZyAWRhLC5uPwF4M_fy-149" value="Qualifications char(50) NOT NULL" style="shape=partialRectangle;overflow=hidden;connectable=0;fillColor=none;top=0;left=0;bottom=0;right=0;align=left;spacingLeft=6;labelBackgroundColor=none;strokeColor=#909090;fontColor=#1A1A1A;" parent="yNZyAWRhLC5uPwF4M_fy-147" vertex="1">
          <mxGeometry x="30" width="240" height="30" as="geometry">
            <mxRectangle width="240" height="30" as="alternateBounds" />
          </mxGeometry>
        </mxCell>
        <mxCell id="yNZyAWRhLC5uPwF4M_fy-154" value="NextOfKin" style="shape=table;startSize=30;container=1;collapsible=1;childLayout=tableLayout;fixedRows=1;rowLines=0;fontStyle=1;align=center;resizeLast=1;labelBackgroundColor=none;fillColor=#F5AB50;strokeColor=#909090;fontColor=#1A1A1A;" parent="1" vertex="1">
          <mxGeometry x="-320" y="290" width="270" height="160" as="geometry" />
        </mxCell>
        <mxCell id="yNZyAWRhLC5uPwF4M_fy-155" value="" style="shape=partialRectangle;collapsible=0;dropTarget=0;pointerEvents=0;fillColor=none;points=[[0,0.5],[1,0.5]];portConstraint=eastwest;top=0;left=0;right=0;bottom=1;labelBackgroundColor=none;strokeColor=#909090;fontColor=#1A1A1A;" parent="yNZyAWRhLC5uPwF4M_fy-154" vertex="1">
          <mxGeometry y="30" width="270" height="30" as="geometry" />
        </mxCell>
        <mxCell id="yNZyAWRhLC5uPwF4M_fy-156" value="PK" style="shape=partialRectangle;overflow=hidden;connectable=0;fillColor=none;top=0;left=0;bottom=0;right=0;fontStyle=1;labelBackgroundColor=none;strokeColor=#909090;fontColor=#1A1A1A;" parent="yNZyAWRhLC5uPwF4M_fy-155" vertex="1">
          <mxGeometry width="30" height="30" as="geometry">
            <mxRectangle width="30" height="30" as="alternateBounds" />
          </mxGeometry>
        </mxCell>
        <mxCell id="yNZyAWRhLC5uPwF4M_fy-157" value="NextOfKinID int NOT NULL " style="shape=partialRectangle;overflow=hidden;connectable=0;fillColor=none;top=0;left=0;bottom=0;right=0;align=left;spacingLeft=6;fontStyle=5;labelBackgroundColor=none;strokeColor=#909090;fontColor=#1A1A1A;" parent="yNZyAWRhLC5uPwF4M_fy-155" vertex="1">
          <mxGeometry x="30" width="240" height="30" as="geometry">
            <mxRectangle width="240" height="30" as="alternateBounds" />
          </mxGeometry>
        </mxCell>
        <mxCell id="yNZyAWRhLC5uPwF4M_fy-158" value="" style="shape=partialRectangle;collapsible=0;dropTarget=0;pointerEvents=0;fillColor=none;points=[[0,0.5],[1,0.5]];portConstraint=eastwest;top=0;left=0;right=0;bottom=0;labelBackgroundColor=none;strokeColor=#909090;fontColor=#1A1A1A;" parent="yNZyAWRhLC5uPwF4M_fy-154" vertex="1">
          <mxGeometry y="60" width="270" height="30" as="geometry" />
        </mxCell>
        <mxCell id="yNZyAWRhLC5uPwF4M_fy-159" value="FK" style="shape=partialRectangle;overflow=hidden;connectable=0;fillColor=none;top=0;left=0;bottom=0;right=0;labelBackgroundColor=none;strokeColor=#909090;fontColor=#1A1A1A;" parent="yNZyAWRhLC5uPwF4M_fy-158" vertex="1">
          <mxGeometry width="30" height="30" as="geometry">
            <mxRectangle width="30" height="30" as="alternateBounds" />
          </mxGeometry>
        </mxCell>
        <mxCell id="yNZyAWRhLC5uPwF4M_fy-160" value="CustomerID char(50) NOT NULL" style="shape=partialRectangle;overflow=hidden;connectable=0;fillColor=none;top=0;left=0;bottom=0;right=0;align=left;spacingLeft=6;labelBackgroundColor=none;strokeColor=#909090;fontColor=#1A1A1A;" parent="yNZyAWRhLC5uPwF4M_fy-158" vertex="1">
          <mxGeometry x="30" width="240" height="30" as="geometry">
            <mxRectangle width="240" height="30" as="alternateBounds" />
          </mxGeometry>
        </mxCell>
        <mxCell id="yNZyAWRhLC5uPwF4M_fy-161" value="" style="shape=partialRectangle;collapsible=0;dropTarget=0;pointerEvents=0;fillColor=none;points=[[0,0.5],[1,0.5]];portConstraint=eastwest;top=0;left=0;right=0;bottom=0;labelBackgroundColor=none;strokeColor=#909090;fontColor=#1A1A1A;" parent="yNZyAWRhLC5uPwF4M_fy-154" vertex="1">
          <mxGeometry y="90" width="270" height="30" as="geometry" />
        </mxCell>
        <mxCell id="yNZyAWRhLC5uPwF4M_fy-162" value="" style="shape=partialRectangle;overflow=hidden;connectable=0;fillColor=none;top=0;left=0;bottom=0;right=0;labelBackgroundColor=none;strokeColor=#909090;fontColor=#1A1A1A;" parent="yNZyAWRhLC5uPwF4M_fy-161" vertex="1">
          <mxGeometry width="30" height="30" as="geometry">
            <mxRectangle width="30" height="30" as="alternateBounds" />
          </mxGeometry>
        </mxCell>
        <mxCell id="yNZyAWRhLC5uPwF4M_fy-163" value="Name char(50) NOT NULL" style="shape=partialRectangle;overflow=hidden;connectable=0;fillColor=none;top=0;left=0;bottom=0;right=0;align=left;spacingLeft=6;labelBackgroundColor=none;strokeColor=#909090;fontColor=#1A1A1A;" parent="yNZyAWRhLC5uPwF4M_fy-161" vertex="1">
          <mxGeometry x="30" width="240" height="30" as="geometry">
            <mxRectangle width="240" height="30" as="alternateBounds" />
          </mxGeometry>
        </mxCell>
        <mxCell id="yNZyAWRhLC5uPwF4M_fy-164" value="" style="shape=partialRectangle;collapsible=0;dropTarget=0;pointerEvents=0;fillColor=none;points=[[0,0.5],[1,0.5]];portConstraint=eastwest;top=0;left=0;right=0;bottom=0;labelBackgroundColor=none;strokeColor=#909090;fontColor=#1A1A1A;" parent="yNZyAWRhLC5uPwF4M_fy-154" vertex="1">
          <mxGeometry y="120" width="270" height="30" as="geometry" />
        </mxCell>
        <mxCell id="yNZyAWRhLC5uPwF4M_fy-165" value="" style="shape=partialRectangle;overflow=hidden;connectable=0;fillColor=none;top=0;left=0;bottom=0;right=0;labelBackgroundColor=none;strokeColor=#909090;fontColor=#1A1A1A;" parent="yNZyAWRhLC5uPwF4M_fy-164" vertex="1">
          <mxGeometry width="30" height="30" as="geometry">
            <mxRectangle width="30" height="30" as="alternateBounds" />
          </mxGeometry>
        </mxCell>
        <mxCell id="yNZyAWRhLC5uPwF4M_fy-166" value="ContactInformation char(50) NOT NULL" style="shape=partialRectangle;overflow=hidden;connectable=0;fillColor=none;top=0;left=0;bottom=0;right=0;align=left;spacingLeft=6;labelBackgroundColor=none;strokeColor=#909090;fontColor=#1A1A1A;" parent="yNZyAWRhLC5uPwF4M_fy-164" vertex="1">
          <mxGeometry x="30" width="240" height="30" as="geometry">
            <mxRectangle width="240" height="30" as="alternateBounds" />
          </mxGeometry>
        </mxCell>
        <mxCell id="yNZyAWRhLC5uPwF4M_fy-167" value="Guarantor" style="shape=table;startSize=30;container=1;collapsible=1;childLayout=tableLayout;fixedRows=1;rowLines=0;fontStyle=1;align=center;resizeLast=1;labelBackgroundColor=none;fillColor=#F5AB50;strokeColor=#909090;fontColor=#1A1A1A;" parent="1" vertex="1">
          <mxGeometry x="340" y="-120" width="270" height="130" as="geometry" />
        </mxCell>
        <mxCell id="yNZyAWRhLC5uPwF4M_fy-168" value="" style="shape=partialRectangle;collapsible=0;dropTarget=0;pointerEvents=0;fillColor=none;points=[[0,0.5],[1,0.5]];portConstraint=eastwest;top=0;left=0;right=0;bottom=1;labelBackgroundColor=none;strokeColor=#909090;fontColor=#1A1A1A;" parent="yNZyAWRhLC5uPwF4M_fy-167" vertex="1">
          <mxGeometry y="30" width="270" height="30" as="geometry" />
        </mxCell>
        <mxCell id="yNZyAWRhLC5uPwF4M_fy-169" value="PK" style="shape=partialRectangle;overflow=hidden;connectable=0;fillColor=none;top=0;left=0;bottom=0;right=0;fontStyle=1;labelBackgroundColor=none;strokeColor=#909090;fontColor=#1A1A1A;" parent="yNZyAWRhLC5uPwF4M_fy-168" vertex="1">
          <mxGeometry width="30" height="30" as="geometry">
            <mxRectangle width="30" height="30" as="alternateBounds" />
          </mxGeometry>
        </mxCell>
        <mxCell id="yNZyAWRhLC5uPwF4M_fy-170" value="GuarantorID int NOT NULL " style="shape=partialRectangle;overflow=hidden;connectable=0;fillColor=none;top=0;left=0;bottom=0;right=0;align=left;spacingLeft=6;fontStyle=5;labelBackgroundColor=none;strokeColor=#909090;fontColor=#1A1A1A;" parent="yNZyAWRhLC5uPwF4M_fy-168" vertex="1">
          <mxGeometry x="30" width="240" height="30" as="geometry">
            <mxRectangle width="240" height="30" as="alternateBounds" />
          </mxGeometry>
        </mxCell>
        <mxCell id="yNZyAWRhLC5uPwF4M_fy-171" value="" style="shape=partialRectangle;collapsible=0;dropTarget=0;pointerEvents=0;fillColor=none;points=[[0,0.5],[1,0.5]];portConstraint=eastwest;top=0;left=0;right=0;bottom=0;labelBackgroundColor=none;strokeColor=#909090;fontColor=#1A1A1A;" parent="yNZyAWRhLC5uPwF4M_fy-167" vertex="1">
          <mxGeometry y="60" width="270" height="30" as="geometry" />
        </mxCell>
        <mxCell id="yNZyAWRhLC5uPwF4M_fy-172" value="FK" style="shape=partialRectangle;overflow=hidden;connectable=0;fillColor=none;top=0;left=0;bottom=0;right=0;labelBackgroundColor=none;strokeColor=#909090;fontColor=#1A1A1A;" parent="yNZyAWRhLC5uPwF4M_fy-171" vertex="1">
          <mxGeometry width="30" height="30" as="geometry">
            <mxRectangle width="30" height="30" as="alternateBounds" />
          </mxGeometry>
        </mxCell>
        <mxCell id="yNZyAWRhLC5uPwF4M_fy-173" value="LoanID char(50) NOT NULL" style="shape=partialRectangle;overflow=hidden;connectable=0;fillColor=none;top=0;left=0;bottom=0;right=0;align=left;spacingLeft=6;labelBackgroundColor=none;strokeColor=#909090;fontColor=#1A1A1A;" parent="yNZyAWRhLC5uPwF4M_fy-171" vertex="1">
          <mxGeometry x="30" width="240" height="30" as="geometry">
            <mxRectangle width="240" height="30" as="alternateBounds" />
          </mxGeometry>
        </mxCell>
        <mxCell id="yNZyAWRhLC5uPwF4M_fy-174" value="" style="shape=partialRectangle;collapsible=0;dropTarget=0;pointerEvents=0;fillColor=none;points=[[0,0.5],[1,0.5]];portConstraint=eastwest;top=0;left=0;right=0;bottom=0;labelBackgroundColor=none;strokeColor=#909090;fontColor=#1A1A1A;" parent="yNZyAWRhLC5uPwF4M_fy-167" vertex="1">
          <mxGeometry y="90" width="270" height="30" as="geometry" />
        </mxCell>
        <mxCell id="yNZyAWRhLC5uPwF4M_fy-175" value="FK" style="shape=partialRectangle;overflow=hidden;connectable=0;fillColor=none;top=0;left=0;bottom=0;right=0;labelBackgroundColor=none;strokeColor=#909090;fontColor=#1A1A1A;" parent="yNZyAWRhLC5uPwF4M_fy-174" vertex="1">
          <mxGeometry width="30" height="30" as="geometry">
            <mxRectangle width="30" height="30" as="alternateBounds" />
          </mxGeometry>
        </mxCell>
        <mxCell id="yNZyAWRhLC5uPwF4M_fy-176" value="CustomerID char(50) NOT NULL" style="shape=partialRectangle;overflow=hidden;connectable=0;fillColor=none;top=0;left=0;bottom=0;right=0;align=left;spacingLeft=6;labelBackgroundColor=none;strokeColor=#909090;fontColor=#1A1A1A;" parent="yNZyAWRhLC5uPwF4M_fy-174" vertex="1">
          <mxGeometry x="30" width="240" height="30" as="geometry">
            <mxRectangle width="240" height="30" as="alternateBounds" />
          </mxGeometry>
        </mxCell>
        <mxCell id="yNZyAWRhLC5uPwF4M_fy-180" value="MobileMoneyAccount" style="shape=table;startSize=30;container=1;collapsible=1;childLayout=tableLayout;fixedRows=1;rowLines=0;fontStyle=1;align=center;resizeLast=1;labelBackgroundColor=none;fillColor=#F5AB50;strokeColor=#909090;fontColor=#1A1A1A;" parent="1" vertex="1">
          <mxGeometry x="-10" y="400" width="280" height="150" as="geometry" />
        </mxCell>
        <mxCell id="yNZyAWRhLC5uPwF4M_fy-181" value="" style="shape=partialRectangle;collapsible=0;dropTarget=0;pointerEvents=0;fillColor=none;points=[[0,0.5],[1,0.5]];portConstraint=eastwest;top=0;left=0;right=0;bottom=1;labelBackgroundColor=none;strokeColor=#909090;fontColor=#1A1A1A;" parent="yNZyAWRhLC5uPwF4M_fy-180" vertex="1">
          <mxGeometry y="30" width="280" height="30" as="geometry" />
        </mxCell>
        <mxCell id="yNZyAWRhLC5uPwF4M_fy-182" value="PK" style="shape=partialRectangle;overflow=hidden;connectable=0;fillColor=none;top=0;left=0;bottom=0;right=0;fontStyle=1;labelBackgroundColor=none;strokeColor=#909090;fontColor=#1A1A1A;" parent="yNZyAWRhLC5uPwF4M_fy-181" vertex="1">
          <mxGeometry width="30" height="30" as="geometry">
            <mxRectangle width="30" height="30" as="alternateBounds" />
          </mxGeometry>
        </mxCell>
        <mxCell id="yNZyAWRhLC5uPwF4M_fy-183" value="MobileMoneyID int NOT NULL " style="shape=partialRectangle;overflow=hidden;connectable=0;fillColor=none;top=0;left=0;bottom=0;right=0;align=left;spacingLeft=6;fontStyle=5;labelBackgroundColor=none;strokeColor=#909090;fontColor=#1A1A1A;" parent="yNZyAWRhLC5uPwF4M_fy-181" vertex="1">
          <mxGeometry x="30" width="250" height="30" as="geometry">
            <mxRectangle width="250" height="30" as="alternateBounds" />
          </mxGeometry>
        </mxCell>
        <mxCell id="yNZyAWRhLC5uPwF4M_fy-184" value="" style="shape=partialRectangle;collapsible=0;dropTarget=0;pointerEvents=0;fillColor=none;points=[[0,0.5],[1,0.5]];portConstraint=eastwest;top=0;left=0;right=0;bottom=0;labelBackgroundColor=none;strokeColor=#909090;fontColor=#1A1A1A;" parent="yNZyAWRhLC5uPwF4M_fy-180" vertex="1">
          <mxGeometry y="60" width="280" height="30" as="geometry" />
        </mxCell>
        <mxCell id="yNZyAWRhLC5uPwF4M_fy-185" value="FK" style="shape=partialRectangle;overflow=hidden;connectable=0;fillColor=none;top=0;left=0;bottom=0;right=0;labelBackgroundColor=none;strokeColor=#909090;fontColor=#1A1A1A;" parent="yNZyAWRhLC5uPwF4M_fy-184" vertex="1">
          <mxGeometry width="30" height="30" as="geometry">
            <mxRectangle width="30" height="30" as="alternateBounds" />
          </mxGeometry>
        </mxCell>
        <mxCell id="yNZyAWRhLC5uPwF4M_fy-186" value="CustomerID char(50) NOT NULL" style="shape=partialRectangle;overflow=hidden;connectable=0;fillColor=none;top=0;left=0;bottom=0;right=0;align=left;spacingLeft=6;labelBackgroundColor=none;strokeColor=#909090;fontColor=#1A1A1A;" parent="yNZyAWRhLC5uPwF4M_fy-184" vertex="1">
          <mxGeometry x="30" width="250" height="30" as="geometry">
            <mxRectangle width="250" height="30" as="alternateBounds" />
          </mxGeometry>
        </mxCell>
        <mxCell id="yNZyAWRhLC5uPwF4M_fy-187" value="" style="shape=partialRectangle;collapsible=0;dropTarget=0;pointerEvents=0;fillColor=none;points=[[0,0.5],[1,0.5]];portConstraint=eastwest;top=0;left=0;right=0;bottom=0;labelBackgroundColor=none;strokeColor=#909090;fontColor=#1A1A1A;" parent="yNZyAWRhLC5uPwF4M_fy-180" vertex="1">
          <mxGeometry y="90" width="280" height="30" as="geometry" />
        </mxCell>
        <mxCell id="yNZyAWRhLC5uPwF4M_fy-188" value="" style="shape=partialRectangle;overflow=hidden;connectable=0;fillColor=none;top=0;left=0;bottom=0;right=0;labelBackgroundColor=none;strokeColor=#909090;fontColor=#1A1A1A;" parent="yNZyAWRhLC5uPwF4M_fy-187" vertex="1">
          <mxGeometry width="30" height="30" as="geometry">
            <mxRectangle width="30" height="30" as="alternateBounds" />
          </mxGeometry>
        </mxCell>
        <mxCell id="yNZyAWRhLC5uPwF4M_fy-189" value="MobileMoneyNumber char(50) NOT NULL" style="shape=partialRectangle;overflow=hidden;connectable=0;fillColor=none;top=0;left=0;bottom=0;right=0;align=left;spacingLeft=6;labelBackgroundColor=none;strokeColor=#909090;fontColor=#1A1A1A;" parent="yNZyAWRhLC5uPwF4M_fy-187" vertex="1">
          <mxGeometry x="30" width="250" height="30" as="geometry">
            <mxRectangle width="250" height="30" as="alternateBounds" />
          </mxGeometry>
        </mxCell>
        <mxCell id="yNZyAWRhLC5uPwF4M_fy-190" value="" style="shape=partialRectangle;collapsible=0;dropTarget=0;pointerEvents=0;fillColor=none;points=[[0,0.5],[1,0.5]];portConstraint=eastwest;top=0;left=0;right=0;bottom=0;labelBackgroundColor=none;strokeColor=#909090;fontColor=#1A1A1A;" parent="yNZyAWRhLC5uPwF4M_fy-180" vertex="1">
          <mxGeometry y="120" width="280" height="30" as="geometry" />
        </mxCell>
        <mxCell id="yNZyAWRhLC5uPwF4M_fy-191" value="" style="shape=partialRectangle;overflow=hidden;connectable=0;fillColor=none;top=0;left=0;bottom=0;right=0;labelBackgroundColor=none;strokeColor=#909090;fontColor=#1A1A1A;" parent="yNZyAWRhLC5uPwF4M_fy-190" vertex="1">
          <mxGeometry width="30" height="30" as="geometry">
            <mxRectangle width="30" height="30" as="alternateBounds" />
          </mxGeometry>
        </mxCell>
        <mxCell id="yNZyAWRhLC5uPwF4M_fy-192" value="Provider char(50) NOT NULL" style="shape=partialRectangle;overflow=hidden;connectable=0;fillColor=none;top=0;left=0;bottom=0;right=0;align=left;spacingLeft=6;labelBackgroundColor=none;strokeColor=#909090;fontColor=#1A1A1A;" parent="yNZyAWRhLC5uPwF4M_fy-190" vertex="1">
          <mxGeometry x="30" width="250" height="30" as="geometry">
            <mxRectangle width="250" height="30" as="alternateBounds" />
          </mxGeometry>
        </mxCell>
        <mxCell id="yNZyAWRhLC5uPwF4M_fy-196" value="EmployeeBranchAssignment" style="shape=table;startSize=30;container=1;collapsible=1;childLayout=tableLayout;fixedRows=1;rowLines=0;fontStyle=1;align=center;resizeLast=1;labelBackgroundColor=none;fillColor=#F5AB50;strokeColor=#909090;fontColor=#1A1A1A;" parent="1" vertex="1">
          <mxGeometry x="1130" y="100" width="270" height="120" as="geometry" />
        </mxCell>
        <mxCell id="yNZyAWRhLC5uPwF4M_fy-197" value="" style="shape=partialRectangle;collapsible=0;dropTarget=0;pointerEvents=0;fillColor=none;points=[[0,0.5],[1,0.5]];portConstraint=eastwest;top=0;left=0;right=0;bottom=1;labelBackgroundColor=none;strokeColor=#909090;fontColor=#1A1A1A;" parent="yNZyAWRhLC5uPwF4M_fy-196" vertex="1">
          <mxGeometry y="30" width="270" height="30" as="geometry" />
        </mxCell>
        <mxCell id="yNZyAWRhLC5uPwF4M_fy-198" value="PK" style="shape=partialRectangle;overflow=hidden;connectable=0;fillColor=none;top=0;left=0;bottom=0;right=0;fontStyle=1;labelBackgroundColor=none;strokeColor=#909090;fontColor=#1A1A1A;" parent="yNZyAWRhLC5uPwF4M_fy-197" vertex="1">
          <mxGeometry width="30" height="30" as="geometry">
            <mxRectangle width="30" height="30" as="alternateBounds" />
          </mxGeometry>
        </mxCell>
        <mxCell id="yNZyAWRhLC5uPwF4M_fy-199" value="AssignmentID int NOT NULL " style="shape=partialRectangle;overflow=hidden;connectable=0;fillColor=none;top=0;left=0;bottom=0;right=0;align=left;spacingLeft=6;fontStyle=5;labelBackgroundColor=none;strokeColor=#909090;fontColor=#1A1A1A;" parent="yNZyAWRhLC5uPwF4M_fy-197" vertex="1">
          <mxGeometry x="30" width="240" height="30" as="geometry">
            <mxRectangle width="240" height="30" as="alternateBounds" />
          </mxGeometry>
        </mxCell>
        <mxCell id="yNZyAWRhLC5uPwF4M_fy-200" value="" style="shape=partialRectangle;collapsible=0;dropTarget=0;pointerEvents=0;fillColor=none;points=[[0,0.5],[1,0.5]];portConstraint=eastwest;top=0;left=0;right=0;bottom=0;labelBackgroundColor=none;strokeColor=#909090;fontColor=#1A1A1A;" parent="yNZyAWRhLC5uPwF4M_fy-196" vertex="1">
          <mxGeometry y="60" width="270" height="30" as="geometry" />
        </mxCell>
        <mxCell id="yNZyAWRhLC5uPwF4M_fy-201" value="FK" style="shape=partialRectangle;overflow=hidden;connectable=0;fillColor=none;top=0;left=0;bottom=0;right=0;labelBackgroundColor=none;strokeColor=#909090;fontColor=#1A1A1A;" parent="yNZyAWRhLC5uPwF4M_fy-200" vertex="1">
          <mxGeometry width="30" height="30" as="geometry">
            <mxRectangle width="30" height="30" as="alternateBounds" />
          </mxGeometry>
        </mxCell>
        <mxCell id="yNZyAWRhLC5uPwF4M_fy-202" value="EmployeeID char(50) NOT NULL" style="shape=partialRectangle;overflow=hidden;connectable=0;fillColor=none;top=0;left=0;bottom=0;right=0;align=left;spacingLeft=6;labelBackgroundColor=none;strokeColor=#909090;fontColor=#1A1A1A;" parent="yNZyAWRhLC5uPwF4M_fy-200" vertex="1">
          <mxGeometry x="30" width="240" height="30" as="geometry">
            <mxRectangle width="240" height="30" as="alternateBounds" />
          </mxGeometry>
        </mxCell>
        <mxCell id="yNZyAWRhLC5uPwF4M_fy-203" value="" style="shape=partialRectangle;collapsible=0;dropTarget=0;pointerEvents=0;fillColor=none;points=[[0,0.5],[1,0.5]];portConstraint=eastwest;top=0;left=0;right=0;bottom=0;labelBackgroundColor=none;strokeColor=#909090;fontColor=#1A1A1A;" parent="yNZyAWRhLC5uPwF4M_fy-196" vertex="1">
          <mxGeometry y="90" width="270" height="30" as="geometry" />
        </mxCell>
        <mxCell id="yNZyAWRhLC5uPwF4M_fy-204" value="FK" style="shape=partialRectangle;overflow=hidden;connectable=0;fillColor=none;top=0;left=0;bottom=0;right=0;labelBackgroundColor=none;strokeColor=#909090;fontColor=#1A1A1A;" parent="yNZyAWRhLC5uPwF4M_fy-203" vertex="1">
          <mxGeometry width="30" height="30" as="geometry">
            <mxRectangle width="30" height="30" as="alternateBounds" />
          </mxGeometry>
        </mxCell>
        <mxCell id="yNZyAWRhLC5uPwF4M_fy-205" value="BranchID char(50) NOT NULL" style="shape=partialRectangle;overflow=hidden;connectable=0;fillColor=none;top=0;left=0;bottom=0;right=0;align=left;spacingLeft=6;labelBackgroundColor=none;strokeColor=#909090;fontColor=#1A1A1A;" parent="yNZyAWRhLC5uPwF4M_fy-203" vertex="1">
          <mxGeometry x="30" width="240" height="30" as="geometry">
            <mxRectangle width="240" height="30" as="alternateBounds" />
          </mxGeometry>
        </mxCell>
        <mxCell id="PQ87TJ9gkWtaoNifxCAz-1" value="" style="edgeStyle=entityRelationEdgeStyle;fontSize=12;html=1;endArrow=ERoneToMany;rounded=0;entryX=1;entryY=0.5;entryDx=0;entryDy=0;exitX=1;exitY=0.5;exitDx=0;exitDy=0;labelBackgroundColor=none;strokeColor=#182E3E;fontColor=default;" parent="1" source="C-vyLk0tnHw3VtMMgP7b-24" target="yNZyAWRhLC5uPwF4M_fy-38" edge="1">
          <mxGeometry width="100" height="100" relative="1" as="geometry">
            <mxPoint x="390" y="10" as="sourcePoint" />
            <mxPoint x="320" y="370" as="targetPoint" />
            <Array as="points">
              <mxPoint x="390" y="-40" />
            </Array>
          </mxGeometry>
        </mxCell>
        <mxCell id="PQ87TJ9gkWtaoNifxCAz-2" value="" style="edgeStyle=entityRelationEdgeStyle;fontSize=12;html=1;endArrow=ERoneToMany;rounded=0;exitX=1;exitY=0.5;exitDx=0;exitDy=0;labelBackgroundColor=none;strokeColor=#182E3E;fontColor=default;" parent="1" source="C-vyLk0tnHw3VtMMgP7b-24" target="yNZyAWRhLC5uPwF4M_fy-5" edge="1">
          <mxGeometry width="100" height="100" relative="1" as="geometry">
            <mxPoint x="565" y="55" as="sourcePoint" />
            <mxPoint x="445" y="-95" as="targetPoint" />
            <Array as="points">
              <mxPoint x="645" y="-30" />
            </Array>
          </mxGeometry>
        </mxCell>
        <mxCell id="PQ87TJ9gkWtaoNifxCAz-3" value="" style="edgeStyle=entityRelationEdgeStyle;fontSize=12;html=1;endArrow=ERoneToMany;rounded=0;exitX=1;exitY=0.5;exitDx=0;exitDy=0;labelBackgroundColor=none;strokeColor=#182E3E;fontColor=default;" parent="1" source="yNZyAWRhLC5uPwF4M_fy-2" target="yNZyAWRhLC5uPwF4M_fy-100" edge="1">
          <mxGeometry width="100" height="100" relative="1" as="geometry">
            <mxPoint x="680" y="105" as="sourcePoint" />
            <mxPoint x="400" y="145" as="targetPoint" />
            <Array as="points">
              <mxPoint x="655" y="-20" />
            </Array>
          </mxGeometry>
        </mxCell>
        <mxCell id="PQ87TJ9gkWtaoNifxCAz-4" value="" style="edgeStyle=entityRelationEdgeStyle;fontSize=12;html=1;endArrow=ERoneToMany;rounded=0;entryX=1;entryY=0.5;entryDx=0;entryDy=0;labelBackgroundColor=none;strokeColor=#182E3E;fontColor=default;" parent="1" source="C-vyLk0tnHw3VtMMgP7b-24" target="yNZyAWRhLC5uPwF4M_fy-184" edge="1">
          <mxGeometry width="100" height="100" relative="1" as="geometry">
            <mxPoint x="300" y="410" as="sourcePoint" />
            <mxPoint x="600" y="460" as="targetPoint" />
          </mxGeometry>
        </mxCell>
        <mxCell id="PQ87TJ9gkWtaoNifxCAz-5" value="" style="edgeStyle=entityRelationEdgeStyle;fontSize=12;html=1;endArrow=ERoneToMany;rounded=0;labelBackgroundColor=none;strokeColor=#182E3E;fontColor=default;" parent="1" source="C-vyLk0tnHw3VtMMgP7b-24" target="yNZyAWRhLC5uPwF4M_fy-158" edge="1">
          <mxGeometry width="100" height="100" relative="1" as="geometry">
            <mxPoint x="30" y="330" as="sourcePoint" />
            <mxPoint x="130" y="230" as="targetPoint" />
          </mxGeometry>
        </mxCell>
        <mxCell id="PQ87TJ9gkWtaoNifxCAz-6" value="" style="edgeStyle=entityRelationEdgeStyle;fontSize=12;html=1;endArrow=ERoneToMany;rounded=0;entryX=1;entryY=0.5;entryDx=0;entryDy=0;labelBackgroundColor=none;strokeColor=#182E3E;fontColor=default;" parent="1" source="yNZyAWRhLC5uPwF4M_fy-2" target="yNZyAWRhLC5uPwF4M_fy-171" edge="1">
          <mxGeometry width="100" height="100" relative="1" as="geometry">
            <mxPoint x="260" y="110" as="sourcePoint" />
            <mxPoint x="360" y="10" as="targetPoint" />
          </mxGeometry>
        </mxCell>
        <mxCell id="PQ87TJ9gkWtaoNifxCAz-7" value="" style="edgeStyle=entityRelationEdgeStyle;fontSize=12;html=1;endArrow=ERoneToMany;rounded=0;exitX=1;exitY=0.5;exitDx=0;exitDy=0;labelBackgroundColor=none;strokeColor=#182E3E;fontColor=default;" parent="1" source="yNZyAWRhLC5uPwF4M_fy-110" target="yNZyAWRhLC5uPwF4M_fy-203" edge="1">
          <mxGeometry width="100" height="100" relative="1" as="geometry">
            <mxPoint x="730" y="210" as="sourcePoint" />
            <mxPoint x="1150" y="210" as="targetPoint" />
          </mxGeometry>
        </mxCell>
        <mxCell id="PQ87TJ9gkWtaoNifxCAz-8" value="" style="edgeStyle=entityRelationEdgeStyle;fontSize=12;html=1;endArrow=ERoneToMany;rounded=0;exitX=1;exitY=0.5;exitDx=0;exitDy=0;labelBackgroundColor=none;strokeColor=#182E3E;fontColor=default;" parent="1" source="yNZyAWRhLC5uPwF4M_fy-123" target="yNZyAWRhLC5uPwF4M_fy-200" edge="1">
          <mxGeometry width="100" height="100" relative="1" as="geometry">
            <mxPoint x="730" y="210" as="sourcePoint" />
            <mxPoint x="830" y="110" as="targetPoint" />
          </mxGeometry>
        </mxCell>
        <mxCell id="PQ87TJ9gkWtaoNifxCAz-9" value="" style="edgeStyle=entityRelationEdgeStyle;fontSize=12;html=1;endArrow=ERoneToMany;rounded=0;strokeColor=#182E3E;fontColor=#1A1A1A;" parent="1" source="C-vyLk0tnHw3VtMMgP7b-24" target="yNZyAWRhLC5uPwF4M_fy-69" edge="1">
          <mxGeometry width="100" height="100" relative="1" as="geometry">
            <mxPoint x="90" y="330" as="sourcePoint" />
            <mxPoint x="190" y="230" as="targetPoint" />
          </mxGeometry>
        </mxCell>
        <mxCell id="PQ87TJ9gkWtaoNifxCAz-10" value="" style="edgeStyle=entityRelationEdgeStyle;fontSize=12;html=1;endArrow=ERoneToMany;rounded=0;strokeColor=#182E3E;fontColor=#1A1A1A;" parent="1" source="yNZyAWRhLC5uPwF4M_fy-48" target="yNZyAWRhLC5uPwF4M_fy-72" edge="1">
          <mxGeometry width="100" height="100" relative="1" as="geometry">
            <mxPoint x="90" y="190" as="sourcePoint" />
            <mxPoint x="190" y="90" as="targetPoint" />
          </mxGeometry>
        </mxCell>
        <mxCell id="PQ87TJ9gkWtaoNifxCAz-11" value="" style="edgeStyle=entityRelationEdgeStyle;fontSize=12;html=1;endArrow=ERoneToMany;rounded=0;strokeColor=#182E3E;fontColor=#1A1A1A;" parent="1" source="C-vyLk0tnHw3VtMMgP7b-24" target="yNZyAWRhLC5uPwF4M_fy-174" edge="1">
          <mxGeometry width="100" height="100" relative="1" as="geometry">
            <mxPoint x="80" y="320" as="sourcePoint" />
            <mxPoint x="180" y="220" as="targetPoint" />
          </mxGeometry>
        </mxCell>
        <mxCell id="PQ87TJ9gkWtaoNifxCAz-12" value="" style="edgeStyle=entityRelationEdgeStyle;fontSize=12;html=1;endArrow=ERoneToMany;rounded=0;strokeColor=#182E3E;fontColor=#1A1A1A;" parent="1" source="yNZyAWRhLC5uPwF4M_fy-66" target="yNZyAWRhLC5uPwF4M_fy-11" edge="1">
          <mxGeometry width="100" height="100" relative="1" as="geometry">
            <mxPoint x="40" y="320" as="sourcePoint" />
            <mxPoint x="140" y="220" as="targetPoint" />
          </mxGeometry>
        </mxCell>
        <mxCell id="PQ87TJ9gkWtaoNifxCAz-13" value="" style="edgeStyle=entityRelationEdgeStyle;fontSize=12;html=1;endArrow=ERoneToMany;rounded=0;strokeColor=#182E3E;fontColor=#1A1A1A;" parent="1" source="yNZyAWRhLC5uPwF4M_fy-48" target="yNZyAWRhLC5uPwF4M_fy-8" edge="1">
          <mxGeometry width="100" height="100" relative="1" as="geometry">
            <mxPoint x="40" y="140" as="sourcePoint" />
            <mxPoint x="140" y="40" as="targetPoint" />
          </mxGeometry>
        </mxCell>
      </root>
    </mxGraphModel>
  </diagram>
  <diagram id="gSP3xW2KslJM8XEwV1JA" name="Page-2">
    <mxGraphModel dx="1644" dy="386" grid="1" gridSize="10" guides="1" tooltips="1" connect="1" arrows="1" fold="1" page="1" pageScale="1" pageWidth="850" pageHeight="1100" background="light-dark(#47fcff, #121212)" math="0" shadow="0">
      <root>
        <mxCell id="0" />
        <mxCell id="1" parent="0" />
        <mxCell id="6iKX3gJ1TNEP-AL-QCUX-8" value="&lt;p&gt;&lt;/p&gt;&lt;div style=&quot;&quot;&gt;&lt;span style=&quot;background-color: transparent; color: light-dark(rgb(0, 0, 0), rgb(255, 255, 255)); font-size: 10px;&quot; data-end=&quot;1989&quot; data-start=&quot;1961&quot;&gt;Employee&lt;/span&gt;&lt;/div&gt;&lt;font style=&quot;font-size: 10px;&quot;&gt;&lt;div style=&quot;&quot;&gt;&lt;span style=&quot;background-color: transparent; color: light-dark(rgb(0, 0, 0), rgb(255, 255, 255));&quot; data-end=&quot;1989&quot; data-start=&quot;1961&quot;&gt;Branch&lt;/span&gt;&lt;span style=&quot;background-color: transparent; color: light-dark(rgb(0, 0, 0), rgb(255, 255, 255));&quot; data-end=&quot;1989&quot; data-start=&quot;1961&quot;&gt;Assignment&lt;/span&gt;&lt;/div&gt;&lt;/font&gt;&lt;p&gt;&lt;/p&gt;&lt;p data-end=&quot;2054&quot; data-start=&quot;1990&quot;&gt;&lt;/p&gt;" style="whiteSpace=wrap;html=1;align=center;" vertex="1" parent="1">
          <mxGeometry x="730" y="321.88" width="100" height="40" as="geometry" />
        </mxCell>
        <mxCell id="6iKX3gJ1TNEP-AL-QCUX-12" value="&lt;p&gt;&lt;/p&gt;&lt;div style=&quot;&quot;&gt;LoanProduct&lt;/div&gt;&lt;p&gt;&lt;/p&gt;&lt;p data-end=&quot;2054&quot; data-start=&quot;1990&quot;&gt;&lt;/p&gt;" style="whiteSpace=wrap;html=1;align=center;" vertex="1" parent="1">
          <mxGeometry x="300" y="60" width="100" height="40" as="geometry" />
        </mxCell>
        <mxCell id="6iKX3gJ1TNEP-AL-QCUX-13" value="&lt;p&gt;&lt;/p&gt;&lt;div style=&quot;&quot;&gt;Loan&lt;/div&gt;&lt;p&gt;&lt;/p&gt;&lt;p data-end=&quot;2054&quot; data-start=&quot;1990&quot;&gt;&lt;/p&gt;" style="whiteSpace=wrap;html=1;align=center;" vertex="1" parent="1">
          <mxGeometry x="5" y="485" width="110" height="40" as="geometry" />
        </mxCell>
        <mxCell id="6iKX3gJ1TNEP-AL-QCUX-14" value="&lt;p&gt;&lt;/p&gt;&lt;div style=&quot;&quot;&gt;LoanRepayment&lt;/div&gt;&lt;p&gt;&lt;/p&gt;&lt;p data-end=&quot;2054&quot; data-start=&quot;1990&quot;&gt;&lt;/p&gt;" style="whiteSpace=wrap;html=1;align=center;" vertex="1" parent="1">
          <mxGeometry x="-265" y="485.01" width="100" height="40" as="geometry" />
        </mxCell>
        <mxCell id="6iKX3gJ1TNEP-AL-QCUX-15" value="&lt;p&gt;&lt;/p&gt;&lt;div style=&quot;&quot;&gt;Branch&lt;/div&gt;&lt;p&gt;&lt;/p&gt;&lt;p data-end=&quot;2054&quot; data-start=&quot;1990&quot;&gt;&lt;/p&gt;" style="whiteSpace=wrap;html=1;align=center;" vertex="1" parent="1">
          <mxGeometry x="530" y="226.25" width="100" height="40" as="geometry" />
        </mxCell>
        <mxCell id="6iKX3gJ1TNEP-AL-QCUX-16" value="&lt;p&gt;&lt;/p&gt;&lt;div style=&quot;&quot;&gt;NextOfKin&lt;/div&gt;&lt;p&gt;&lt;/p&gt;&lt;p data-end=&quot;2054&quot; data-start=&quot;1990&quot;&gt;&lt;/p&gt;" style="whiteSpace=wrap;html=1;align=center;" vertex="1" parent="1">
          <mxGeometry x="-265" y="60" width="100" height="40" as="geometry" />
        </mxCell>
        <mxCell id="6iKX3gJ1TNEP-AL-QCUX-17" value="&lt;p&gt;&lt;/p&gt;&lt;div style=&quot;&quot;&gt;Guarantor&lt;/div&gt;&lt;p&gt;&lt;/p&gt;&lt;p data-end=&quot;2054&quot; data-start=&quot;1990&quot;&gt;&lt;/p&gt;" style="whiteSpace=wrap;html=1;align=center;" vertex="1" parent="1">
          <mxGeometry x="277.5" y="485" width="100" height="40" as="geometry" />
        </mxCell>
        <mxCell id="6iKX3gJ1TNEP-AL-QCUX-18" value="&lt;p&gt;&lt;/p&gt;&lt;div style=&quot;&quot;&gt;Mobile&lt;/div&gt;&lt;div style=&quot;&quot;&gt;MoneyAccount&lt;/div&gt;&lt;p&gt;&lt;/p&gt;&lt;p data-end=&quot;2054&quot; data-start=&quot;1990&quot;&gt;&lt;/p&gt;" style="whiteSpace=wrap;html=1;align=center;" vertex="1" parent="1">
          <mxGeometry x="8.75" y="60" width="100" height="40" as="geometry" />
        </mxCell>
        <mxCell id="6iKX3gJ1TNEP-AL-QCUX-19" value="&lt;p&gt;&lt;/p&gt;&lt;div style=&quot;&quot;&gt;Employee&lt;/div&gt;&lt;p&gt;&lt;/p&gt;&lt;p data-end=&quot;2054&quot; data-start=&quot;1990&quot;&gt;&lt;/p&gt;" style="whiteSpace=wrap;html=1;align=center;" vertex="1" parent="1">
          <mxGeometry x="530" y="460" width="100" height="40" as="geometry" />
        </mxCell>
        <mxCell id="6iKX3gJ1TNEP-AL-QCUX-20" value="&lt;p&gt;&lt;/p&gt;&lt;div style=&quot;&quot;&gt;LoanApplication&lt;/div&gt;&lt;p&gt;&lt;/p&gt;&lt;p data-end=&quot;2054&quot; data-start=&quot;1990&quot;&gt;&lt;/p&gt;" style="whiteSpace=wrap;html=1;align=center;" vertex="1" parent="1">
          <mxGeometry x="300" y="233.75" width="100" height="40" as="geometry" />
        </mxCell>
        <mxCell id="6iKX3gJ1TNEP-AL-QCUX-21" value="&lt;p&gt;&lt;/p&gt;&lt;div style=&quot;&quot;&gt;Account&lt;/div&gt;&lt;p&gt;&lt;/p&gt;&lt;p data-end=&quot;2054&quot; data-start=&quot;1990&quot;&gt;&lt;/p&gt;" style="whiteSpace=wrap;html=1;align=center;" vertex="1" parent="1">
          <mxGeometry x="-295" y="233.75" width="100" height="40" as="geometry" />
        </mxCell>
        <mxCell id="6iKX3gJ1TNEP-AL-QCUX-22" value="&lt;p&gt;&lt;/p&gt;&lt;div style=&quot;&quot;&gt;Customer&lt;/div&gt;&lt;p&gt;&lt;/p&gt;&lt;p data-end=&quot;2054&quot; data-start=&quot;1990&quot;&gt;&lt;/p&gt;" style="whiteSpace=wrap;html=1;align=center;" vertex="1" parent="1">
          <mxGeometry x="10" y="233.75" width="100" height="40" as="geometry" />
        </mxCell>
        <mxCell id="lL887fT7Myv8G0gaGl4e-1" value="&lt;strong data-end=&quot;238&quot; data-start=&quot;224&quot;&gt;&lt;font style=&quot;font-size: 10px;&quot;&gt;CustomerID&lt;/font&gt;&lt;/strong&gt;" style="ellipse;whiteSpace=wrap;html=1;align=center;fontStyle=4;" vertex="1" parent="1">
          <mxGeometry x="-70" y="203.75" width="70" height="30" as="geometry" />
        </mxCell>
        <mxCell id="lL887fT7Myv8G0gaGl4e-2" value="FirstName" style="ellipse;whiteSpace=wrap;html=1;align=center;" vertex="1" parent="1">
          <mxGeometry x="-35" y="138.75" width="70" height="30" as="geometry" />
        </mxCell>
        <mxCell id="lL887fT7Myv8G0gaGl4e-3" value="&lt;strong data-end=&quot;1468&quot; data-start=&quot;1456&quot;&gt;BranchID&lt;/strong&gt;" style="ellipse;whiteSpace=wrap;html=1;align=center;fontStyle=4;" vertex="1" parent="1">
          <mxGeometry x="490" y="170" width="70" height="30" as="geometry" />
        </mxCell>
        <mxCell id="lL887fT7Myv8G0gaGl4e-4" value="MiddleName" style="ellipse;whiteSpace=wrap;html=1;align=center;" vertex="1" parent="1">
          <mxGeometry x="80" y="160" width="70" height="30" as="geometry" />
        </mxCell>
        <mxCell id="lL887fT7Myv8G0gaGl4e-5" value="LastName" style="ellipse;whiteSpace=wrap;html=1;align=center;" vertex="1" parent="1">
          <mxGeometry x="660" y="400" width="70" height="30" as="geometry" />
        </mxCell>
        <mxCell id="lL887fT7Myv8G0gaGl4e-7" value="&lt;span style=&quot;text-align: left;&quot;&gt;DateOfBirth&lt;/span&gt;" style="ellipse;whiteSpace=wrap;html=1;align=center;" vertex="1" parent="1">
          <mxGeometry x="96.25" y="190" width="70" height="30" as="geometry" />
        </mxCell>
        <mxCell id="lL887fT7Myv8G0gaGl4e-8" value="&lt;span style=&quot;text-align: left;&quot;&gt;Residential&lt;/span&gt;&lt;div&gt;&lt;span style=&quot;text-align: left;&quot;&gt;Address&lt;/span&gt;&lt;/div&gt;" style="ellipse;whiteSpace=wrap;html=1;align=center;" vertex="1" parent="1">
          <mxGeometry x="-70" y="320" width="70" height="30" as="geometry" />
        </mxCell>
        <mxCell id="lL887fT7Myv8G0gaGl4e-9" value="&lt;span style=&quot;text-align: left;&quot;&gt;Gender&lt;/span&gt;" style="ellipse;whiteSpace=wrap;html=1;align=center;" vertex="1" parent="1">
          <mxGeometry x="95" y="335" width="70" height="30" as="geometry" />
        </mxCell>
        <mxCell id="lL887fT7Myv8G0gaGl4e-10" value="&lt;span style=&quot;text-align: left;&quot;&gt;Ghana&lt;/span&gt;&lt;div&gt;&lt;span style=&quot;text-align: left;&quot;&gt;CardNumber&lt;/span&gt;&lt;/div&gt;" style="ellipse;whiteSpace=wrap;html=1;align=center;" vertex="1" parent="1">
          <mxGeometry x="-10" y="300" width="70" height="30" as="geometry" />
        </mxCell>
        <mxCell id="lL887fT7Myv8G0gaGl4e-11" value="&lt;span style=&quot;text-align: left;&quot;&gt;Other&lt;/span&gt;&lt;div&gt;&lt;span style=&quot;text-align: left;&quot;&gt;FormsOfID&lt;/span&gt;&lt;/div&gt;" style="ellipse;whiteSpace=wrap;html=1;align=center;" vertex="1" parent="1">
          <mxGeometry x="95" y="280" width="70" height="30" as="geometry" />
        </mxCell>
        <mxCell id="lL887fT7Myv8G0gaGl4e-12" value="BranchName" style="ellipse;whiteSpace=wrap;html=1;align=center;" vertex="1" parent="1">
          <mxGeometry x="540" y="135" width="70" height="30" as="geometry" />
        </mxCell>
        <mxCell id="lL887fT7Myv8G0gaGl4e-13" value="Location" style="ellipse;whiteSpace=wrap;html=1;align=center;" vertex="1" parent="1">
          <mxGeometry x="590" y="170" width="70" height="30" as="geometry" />
        </mxCell>
        <mxCell id="lL887fT7Myv8G0gaGl4e-15" value="&lt;strong data-end=&quot;1680&quot; data-start=&quot;1665&quot;&gt;GuarantorID&lt;/strong&gt;" style="ellipse;whiteSpace=wrap;html=1;align=center;fontStyle=4;" vertex="1" parent="1">
          <mxGeometry x="252.5" y="430" width="70" height="30" as="geometry" />
        </mxCell>
        <mxCell id="lL887fT7Myv8G0gaGl4e-17" value="&lt;b&gt;LoadID&lt;/b&gt;" style="ellipse;whiteSpace=wrap;html=1;align=center;" vertex="1" parent="1">
          <mxGeometry x="322.5" y="417.5" width="70" height="30" as="geometry" />
        </mxCell>
        <mxCell id="lL887fT7Myv8G0gaGl4e-18" value="&lt;strong data-end=&quot;1749&quot; data-start=&quot;1735&quot;&gt;CustomerID&lt;/strong&gt;" style="ellipse;whiteSpace=wrap;html=1;align=center;" vertex="1" parent="1">
          <mxGeometry x="270" y="550" width="70" height="30" as="geometry" />
        </mxCell>
        <mxCell id="lL887fT7Myv8G0gaGl4e-19" value="Name" style="ellipse;whiteSpace=wrap;html=1;align=center;" vertex="1" parent="1">
          <mxGeometry x="-275" y="10" width="70" height="30" as="geometry" />
        </mxCell>
        <mxCell id="lL887fT7Myv8G0gaGl4e-20" value="&lt;strong data-end=&quot;1550&quot; data-start=&quot;1535&quot;&gt;NextOfKinID&lt;/strong&gt;" style="ellipse;whiteSpace=wrap;html=1;align=center;fontStyle=4;" vertex="1" parent="1">
          <mxGeometry x="-357.5" y="15" width="80" height="30" as="geometry" />
        </mxCell>
        <mxCell id="lL887fT7Myv8G0gaGl4e-21" value="&lt;strong data-end=&quot;1583&quot; data-start=&quot;1569&quot;&gt;CustomerID&lt;/strong&gt;" style="ellipse;whiteSpace=wrap;html=1;align=center;" vertex="1" parent="1">
          <mxGeometry x="-195" y="5" width="70" height="30" as="geometry" />
        </mxCell>
        <mxCell id="lL887fT7Myv8G0gaGl4e-23" value="Contact&lt;div&gt;Information&lt;/div&gt;" style="ellipse;whiteSpace=wrap;html=1;align=center;" vertex="1" parent="1">
          <mxGeometry x="-350" y="60" width="70" height="30" as="geometry" />
        </mxCell>
        <mxCell id="lL887fT7Myv8G0gaGl4e-24" value="FirstName" style="ellipse;whiteSpace=wrap;html=1;align=center;" vertex="1" parent="1">
          <mxGeometry x="490" y="390" width="70" height="30" as="geometry" />
        </mxCell>
        <mxCell id="lL887fT7Myv8G0gaGl4e-25" value="&lt;strong data-end=&quot;1305&quot; data-start=&quot;1291&quot;&gt;EmployeeID&lt;/strong&gt;" style="ellipse;whiteSpace=wrap;html=1;align=center;fontStyle=4;" vertex="1" parent="1">
          <mxGeometry x="435" y="430" width="80" height="30" as="geometry" />
        </mxCell>
        <mxCell id="lL887fT7Myv8G0gaGl4e-26" value="MiddleName" style="ellipse;whiteSpace=wrap;html=1;align=center;" vertex="1" parent="1">
          <mxGeometry x="590" y="387.5" width="70" height="30" as="geometry" />
        </mxCell>
        <mxCell id="lL887fT7Myv8G0gaGl4e-27" value="&lt;span style=&quot;text-align: left;&quot;&gt;DateOfBirth&lt;/span&gt;" style="ellipse;whiteSpace=wrap;html=1;align=center;" vertex="1" parent="1">
          <mxGeometry x="650" y="495" width="70" height="30" as="geometry" />
        </mxCell>
        <mxCell id="lL887fT7Myv8G0gaGl4e-28" value="&lt;span style=&quot;text-align: left;&quot;&gt;Gender&lt;/span&gt;" style="ellipse;whiteSpace=wrap;html=1;align=center;" vertex="1" parent="1">
          <mxGeometry x="560" y="540" width="70" height="30" as="geometry" />
        </mxCell>
        <mxCell id="lL887fT7Myv8G0gaGl4e-29" value="StaffID" style="ellipse;whiteSpace=wrap;html=1;align=center;" vertex="1" parent="1">
          <mxGeometry x="670" y="430" width="70" height="30" as="geometry" />
        </mxCell>
        <mxCell id="lL887fT7Myv8G0gaGl4e-30" value="Department" style="ellipse;whiteSpace=wrap;html=1;align=center;" vertex="1" parent="1">
          <mxGeometry x="630" y="550" width="70" height="30" as="geometry" />
        </mxCell>
        <mxCell id="lL887fT7Myv8G0gaGl4e-31" value="Qualifications" style="ellipse;whiteSpace=wrap;html=1;align=center;" vertex="1" parent="1">
          <mxGeometry x="465" y="540" width="75" height="30" as="geometry" />
        </mxCell>
        <mxCell id="lL887fT7Myv8G0gaGl4e-32" value="&lt;strong data-end=&quot;1305&quot; data-start=&quot;1291&quot;&gt;RepaymentID&lt;/strong&gt;" style="ellipse;whiteSpace=wrap;html=1;align=center;fontStyle=4;" vertex="1" parent="1">
          <mxGeometry x="-350" y="417.5" width="80" height="30" as="geometry" />
        </mxCell>
        <mxCell id="lL887fT7Myv8G0gaGl4e-33" value="&lt;strong data-end=&quot;1208&quot; data-start=&quot;1198&quot;&gt;LoanID&lt;/strong&gt;" style="ellipse;whiteSpace=wrap;html=1;align=center;" vertex="1" parent="1">
          <mxGeometry x="-277.5" y="400" width="70" height="30" as="geometry" />
        </mxCell>
        <mxCell id="lL887fT7Myv8G0gaGl4e-34" value="Repayment&lt;div&gt;Date&lt;/div&gt;" style="ellipse;whiteSpace=wrap;html=1;align=center;" vertex="1" parent="1">
          <mxGeometry x="-212.5" y="417.5" width="75" height="30" as="geometry" />
        </mxCell>
        <mxCell id="lL887fT7Myv8G0gaGl4e-35" value="LoanAmount&lt;div&gt;Granted&lt;/div&gt;" style="ellipse;whiteSpace=wrap;html=1;align=center;" vertex="1" parent="1">
          <mxGeometry x="125" y="442.5" width="75" height="30" as="geometry" />
        </mxCell>
        <mxCell id="lL887fT7Myv8G0gaGl4e-36" value="&lt;strong data-end=&quot;1825&quot; data-start=&quot;1808&quot;&gt;Mobile&lt;/strong&gt;&lt;div&gt;&lt;strong data-end=&quot;1825&quot; data-start=&quot;1808&quot;&gt;MoneyID&lt;/strong&gt;&lt;/div&gt;" style="ellipse;whiteSpace=wrap;html=1;align=center;fontStyle=4;" vertex="1" parent="1">
          <mxGeometry x="-90" y="10" width="80" height="30" as="geometry" />
        </mxCell>
        <mxCell id="lL887fT7Myv8G0gaGl4e-37" value="&lt;strong data-end=&quot;1858&quot; data-start=&quot;1844&quot;&gt;CustomerID&lt;/strong&gt;" style="ellipse;whiteSpace=wrap;html=1;align=center;" vertex="1" parent="1">
          <mxGeometry x="390" y="170" width="70" height="30" as="geometry" />
        </mxCell>
        <mxCell id="lL887fT7Myv8G0gaGl4e-38" value="Mobile&lt;div&gt;MoneyNumber&lt;/div&gt;" style="ellipse;whiteSpace=wrap;html=1;align=center;" vertex="1" parent="1">
          <mxGeometry x="40" y="10" width="75" height="30" as="geometry" />
        </mxCell>
        <mxCell id="lL887fT7Myv8G0gaGl4e-39" value="&lt;strong style=&quot;text-align: left;&quot; data-end=&quot;950&quot; data-start=&quot;936&quot;&gt;CustomerID&lt;/strong&gt;&lt;span style=&quot;text-align: left;&quot;&gt;&amp;nbsp;&lt;/span&gt;" style="ellipse;whiteSpace=wrap;html=1;align=center;" vertex="1" parent="1">
          <mxGeometry x="70" y="412.5" width="70" height="30" as="geometry" />
        </mxCell>
        <mxCell id="lL887fT7Myv8G0gaGl4e-40" value="&lt;strong style=&quot;text-align: left;&quot; data-end=&quot;917&quot; data-start=&quot;907&quot;&gt;LoanID&lt;/strong&gt;&lt;span style=&quot;text-align: left;&quot;&gt;&amp;nbsp;&lt;/span&gt;" style="ellipse;whiteSpace=wrap;html=1;align=center;fontStyle=4;" vertex="1" parent="1">
          <mxGeometry x="-65" y="447.5" width="70" height="25" as="geometry" />
        </mxCell>
        <mxCell id="lL887fT7Myv8G0gaGl4e-41" value="&lt;strong style=&quot;text-align: left;&quot; data-end=&quot;997&quot; data-start=&quot;980&quot;&gt;Loan&lt;/strong&gt;&lt;div&gt;&lt;strong style=&quot;text-align: left;&quot; data-end=&quot;997&quot; data-start=&quot;980&quot;&gt;ProductID&lt;/strong&gt;&lt;span style=&quot;text-align: left;&quot;&gt;&amp;nbsp;&lt;/span&gt;&lt;/div&gt;" style="ellipse;whiteSpace=wrap;html=1;align=center;" vertex="1" parent="1">
          <mxGeometry x="-25" y="417.5" width="75" height="30" as="geometry" />
        </mxCell>
        <mxCell id="lL887fT7Myv8G0gaGl4e-42" value="&lt;strong style=&quot;text-align: left;&quot; data-end=&quot;1047&quot; data-start=&quot;1030&quot;&gt;ApplicationID&lt;/strong&gt;&lt;span style=&quot;text-align: left;&quot;&gt;&amp;nbsp;&lt;/span&gt;" style="ellipse;whiteSpace=wrap;html=1;align=center;" vertex="1" parent="1">
          <mxGeometry x="10" y="580" width="75" height="30" as="geometry" />
        </mxCell>
        <mxCell id="lL887fT7Myv8G0gaGl4e-44" value="LoanStartDate" style="ellipse;whiteSpace=wrap;html=1;align=center;" vertex="1" parent="1">
          <mxGeometry x="80" y="550" width="75" height="30" as="geometry" />
        </mxCell>
        <mxCell id="lL887fT7Myv8G0gaGl4e-45" value="LoanEndDate" style="ellipse;whiteSpace=wrap;html=1;align=center;" vertex="1" parent="1">
          <mxGeometry x="-40" y="540" width="75" height="30" as="geometry" />
        </mxCell>
        <mxCell id="lL887fT7Myv8G0gaGl4e-49" value="&lt;strong style=&quot;text-align: left;&quot; data-end=&quot;997&quot; data-start=&quot;980&quot;&gt;Loan&lt;/strong&gt;&lt;div&gt;&lt;strong style=&quot;text-align: left;&quot; data-end=&quot;997&quot; data-start=&quot;980&quot;&gt;ProductID&lt;/strong&gt;&lt;span style=&quot;text-align: left;&quot;&gt;&amp;nbsp;&lt;/span&gt;&lt;/div&gt;" style="ellipse;whiteSpace=wrap;html=1;align=center;" vertex="1" parent="1">
          <mxGeometry x="250" y="290" width="75" height="30" as="geometry" />
        </mxCell>
        <mxCell id="lL887fT7Myv8G0gaGl4e-50" value="LoanAmount&lt;div&gt;Requested&lt;/div&gt;" style="ellipse;whiteSpace=wrap;html=1;align=center;" vertex="1" parent="1">
          <mxGeometry x="280" y="335" width="75" height="30" as="geometry" />
        </mxCell>
        <mxCell id="lL887fT7Myv8G0gaGl4e-51" value="Application&lt;div&gt;Date&lt;/div&gt;" style="ellipse;whiteSpace=wrap;html=1;align=center;" vertex="1" parent="1">
          <mxGeometry x="340" y="305" width="75" height="30" as="geometry" />
        </mxCell>
        <mxCell id="lL887fT7Myv8G0gaGl4e-53" value="AccountNumber" style="ellipse;whiteSpace=wrap;html=1;align=center;fontStyle=4;" vertex="1" parent="1">
          <mxGeometry x="-350" y="182.5" width="80" height="30" as="geometry" />
        </mxCell>
        <mxCell id="lL887fT7Myv8G0gaGl4e-54" value="&lt;strong data-end=&quot;735&quot; data-start=&quot;718&quot;&gt;ApplicationID&lt;/strong&gt;" style="ellipse;whiteSpace=wrap;html=1;align=center;fontStyle=4;" vertex="1" parent="1">
          <mxGeometry x="247.5" y="182.5" width="80" height="30" as="geometry" />
        </mxCell>
        <mxCell id="lL887fT7Myv8G0gaGl4e-55" value="AccountType " style="ellipse;whiteSpace=wrap;html=1;align=center;" vertex="1" parent="1">
          <mxGeometry x="-282.5" y="152.5" width="75" height="30" as="geometry" />
        </mxCell>
        <mxCell id="lL887fT7Myv8G0gaGl4e-56" value="&lt;strong style=&quot;text-align: left;&quot; data-end=&quot;950&quot; data-start=&quot;936&quot;&gt;CustomerID&lt;/strong&gt;&lt;span style=&quot;text-align: left;&quot;&gt;&amp;nbsp;&lt;/span&gt;" style="ellipse;whiteSpace=wrap;html=1;align=center;" vertex="1" parent="1">
          <mxGeometry x="-210" y="177.5" width="70" height="30" as="geometry" />
        </mxCell>
        <mxCell id="lL887fT7Myv8G0gaGl4e-57" value="Balance " style="ellipse;whiteSpace=wrap;html=1;align=center;" vertex="1" parent="1">
          <mxGeometry x="-340" y="307.5" width="75" height="30" as="geometry" />
        </mxCell>
        <mxCell id="lL887fT7Myv8G0gaGl4e-58" value="&lt;strong data-end=&quot;735&quot; data-start=&quot;718&quot;&gt;Loan&lt;/strong&gt;&lt;div&gt;&lt;strong data-end=&quot;735&quot; data-start=&quot;718&quot;&gt;ProductID&lt;/strong&gt;&lt;/div&gt;" style="ellipse;whiteSpace=wrap;html=1;align=center;fontStyle=4;" vertex="1" parent="1">
          <mxGeometry x="230" y="10" width="80" height="30" as="geometry" />
        </mxCell>
        <mxCell id="lL887fT7Myv8G0gaGl4e-59" value="LoanType&lt;div&gt;Name &lt;/div&gt;" style="ellipse;whiteSpace=wrap;html=1;align=center;" vertex="1" parent="1">
          <mxGeometry x="317.5" y="10" width="75" height="30" as="geometry" />
        </mxCell>
        <mxCell id="lL887fT7Myv8G0gaGl4e-60" value="InterestRate" style="ellipse;whiteSpace=wrap;html=1;align=center;" vertex="1" parent="1">
          <mxGeometry x="400" y="5" width="75" height="30" as="geometry" />
        </mxCell>
        <mxCell id="lL887fT7Myv8G0gaGl4e-61" value="LoanTerm" style="ellipse;whiteSpace=wrap;html=1;align=center;" vertex="1" parent="1">
          <mxGeometry x="400" y="121.25" width="75" height="30" as="geometry" />
        </mxCell>
        <mxCell id="lL887fT7Myv8G0gaGl4e-62" value="&lt;strong data-end=&quot;2073&quot; data-start=&quot;2057&quot;&gt;AssignmentID&lt;/strong&gt;" style="ellipse;whiteSpace=wrap;html=1;align=center;fontStyle=4;" vertex="1" parent="1">
          <mxGeometry x="690" y="270" width="80" height="30" as="geometry" />
        </mxCell>
        <mxCell id="lL887fT7Myv8G0gaGl4e-64" value="&lt;strong data-end=&quot;2106&quot; data-start=&quot;2092&quot;&gt;EmployeeID&lt;/strong&gt;" style="ellipse;whiteSpace=wrap;html=1;align=center;" vertex="1" parent="1">
          <mxGeometry x="750" y="242.5" width="75" height="30" as="geometry" />
        </mxCell>
        <mxCell id="lL887fT7Myv8G0gaGl4e-65" value="&lt;strong data-end=&quot;2148&quot; data-start=&quot;2136&quot;&gt;BranchID&lt;/strong&gt;" style="ellipse;whiteSpace=wrap;html=1;align=center;" vertex="1" parent="1">
          <mxGeometry x="770" y="382.5" width="75" height="30" as="geometry" />
        </mxCell>
        <mxCell id="lL887fT7Myv8G0gaGl4e-66" value="" style="endArrow=none;html=1;rounded=0;entryX=0;entryY=0.156;entryDx=0;entryDy=0;exitX=1;exitY=1;exitDx=0;exitDy=0;entryPerimeter=0;" edge="1" parent="1" source="lL887fT7Myv8G0gaGl4e-1" target="6iKX3gJ1TNEP-AL-QCUX-22">
          <mxGeometry relative="1" as="geometry">
            <mxPoint x="-160" y="280" as="sourcePoint" />
            <mxPoint y="280" as="targetPoint" />
          </mxGeometry>
        </mxCell>
        <mxCell id="lL887fT7Myv8G0gaGl4e-67" value="" style="endArrow=none;html=1;rounded=0;entryX=0.5;entryY=0;entryDx=0;entryDy=0;exitX=0.5;exitY=1;exitDx=0;exitDy=0;" edge="1" parent="1" source="lL887fT7Myv8G0gaGl4e-2" target="6iKX3gJ1TNEP-AL-QCUX-22">
          <mxGeometry relative="1" as="geometry">
            <mxPoint x="15" y="215" as="sourcePoint" />
            <mxPoint x="45" y="240" as="targetPoint" />
          </mxGeometry>
        </mxCell>
        <mxCell id="lL887fT7Myv8G0gaGl4e-68" value="" style="endArrow=none;html=1;rounded=0;entryX=0.75;entryY=0;entryDx=0;entryDy=0;exitX=0.5;exitY=1;exitDx=0;exitDy=0;" edge="1" parent="1" source="lL887fT7Myv8G0gaGl4e-4" target="6iKX3gJ1TNEP-AL-QCUX-22">
          <mxGeometry relative="1" as="geometry">
            <mxPoint x="45" y="170" as="sourcePoint" />
            <mxPoint x="70" y="240" as="targetPoint" />
          </mxGeometry>
        </mxCell>
        <mxCell id="lL887fT7Myv8G0gaGl4e-69" value="" style="endArrow=none;html=1;rounded=0;entryX=0.25;entryY=1;entryDx=0;entryDy=0;exitX=0.5;exitY=0;exitDx=0;exitDy=0;" edge="1" parent="1" source="lL887fT7Myv8G0gaGl4e-8" target="6iKX3gJ1TNEP-AL-QCUX-22">
          <mxGeometry relative="1" as="geometry">
            <mxPoint x="95" y="200" as="sourcePoint" />
            <mxPoint x="95" y="240" as="targetPoint" />
          </mxGeometry>
        </mxCell>
        <mxCell id="lL887fT7Myv8G0gaGl4e-70" value="" style="endArrow=none;html=1;rounded=0;entryX=0.5;entryY=1;entryDx=0;entryDy=0;exitX=0.5;exitY=0;exitDx=0;exitDy=0;" edge="1" parent="1" source="lL887fT7Myv8G0gaGl4e-10" target="6iKX3gJ1TNEP-AL-QCUX-22">
          <mxGeometry relative="1" as="geometry">
            <mxPoint x="5" y="335" as="sourcePoint" />
            <mxPoint x="45" y="280" as="targetPoint" />
          </mxGeometry>
        </mxCell>
        <mxCell id="lL887fT7Myv8G0gaGl4e-71" value="" style="endArrow=none;html=1;rounded=0;entryX=0.75;entryY=1;entryDx=0;entryDy=0;exitX=0;exitY=0;exitDx=0;exitDy=0;" edge="1" parent="1" source="lL887fT7Myv8G0gaGl4e-11" target="6iKX3gJ1TNEP-AL-QCUX-22">
          <mxGeometry relative="1" as="geometry">
            <mxPoint x="70" y="310" as="sourcePoint" />
            <mxPoint x="70" y="280" as="targetPoint" />
          </mxGeometry>
        </mxCell>
        <mxCell id="lL887fT7Myv8G0gaGl4e-72" value="" style="endArrow=none;html=1;rounded=0;entryX=0.5;entryY=0;entryDx=0;entryDy=0;exitX=0.5;exitY=1;exitDx=0;exitDy=0;" edge="1" parent="1" source="6iKX3gJ1TNEP-AL-QCUX-22" target="lL887fT7Myv8G0gaGl4e-9">
          <mxGeometry relative="1" as="geometry">
            <mxPoint x="5" y="335" as="sourcePoint" />
            <mxPoint x="45" y="280" as="targetPoint" />
          </mxGeometry>
        </mxCell>
        <mxCell id="lL887fT7Myv8G0gaGl4e-73" value="" style="endArrow=none;html=1;rounded=0;entryX=0.5;entryY=1;entryDx=0;entryDy=0;exitX=0.75;exitY=0;exitDx=0;exitDy=0;" edge="1" parent="1" source="6iKX3gJ1TNEP-AL-QCUX-22" target="lL887fT7Myv8G0gaGl4e-7">
          <mxGeometry relative="1" as="geometry">
            <mxPoint x="70" y="280" as="sourcePoint" />
            <mxPoint x="75" y="385" as="targetPoint" />
          </mxGeometry>
        </mxCell>
        <mxCell id="lL887fT7Myv8G0gaGl4e-74" value="" style="endArrow=none;html=1;rounded=0;exitX=0.5;exitY=1;exitDx=0;exitDy=0;entryX=0.5;entryY=0;entryDx=0;entryDy=0;" edge="1" parent="1" source="lL887fT7Myv8G0gaGl4e-55" target="6iKX3gJ1TNEP-AL-QCUX-21">
          <mxGeometry relative="1" as="geometry">
            <mxPoint x="-160" y="380" as="sourcePoint" />
            <mxPoint y="380" as="targetPoint" />
          </mxGeometry>
        </mxCell>
        <mxCell id="lL887fT7Myv8G0gaGl4e-75" value="" style="endArrow=none;html=1;rounded=0;exitX=0.5;exitY=1;exitDx=0;exitDy=0;entryX=0.25;entryY=0;entryDx=0;entryDy=0;" edge="1" parent="1" source="lL887fT7Myv8G0gaGl4e-53" target="6iKX3gJ1TNEP-AL-QCUX-21">
          <mxGeometry relative="1" as="geometry">
            <mxPoint x="-160" y="380" as="sourcePoint" />
            <mxPoint y="380" as="targetPoint" />
          </mxGeometry>
        </mxCell>
        <mxCell id="lL887fT7Myv8G0gaGl4e-76" value="" style="endArrow=none;html=1;rounded=0;exitX=0.5;exitY=1;exitDx=0;exitDy=0;entryX=0.75;entryY=0;entryDx=0;entryDy=0;" edge="1" parent="1" source="lL887fT7Myv8G0gaGl4e-56" target="6iKX3gJ1TNEP-AL-QCUX-21">
          <mxGeometry relative="1" as="geometry">
            <mxPoint x="-117" y="195" as="sourcePoint" />
            <mxPoint x="-145" y="240" as="targetPoint" />
          </mxGeometry>
        </mxCell>
        <mxCell id="lL887fT7Myv8G0gaGl4e-77" value="" style="endArrow=none;html=1;rounded=0;exitX=0.5;exitY=1;exitDx=0;exitDy=0;" edge="1" parent="1" source="6iKX3gJ1TNEP-AL-QCUX-21" target="lL887fT7Myv8G0gaGl4e-57">
          <mxGeometry relative="1" as="geometry">
            <mxPoint x="-210" y="215" as="sourcePoint" />
            <mxPoint x="-170" y="240" as="targetPoint" />
          </mxGeometry>
        </mxCell>
        <mxCell id="lL887fT7Myv8G0gaGl4e-78" value="owns" style="shape=rhombus;perimeter=rhombusPerimeter;whiteSpace=wrap;html=1;align=center;" vertex="1" parent="1">
          <mxGeometry x="-140" y="230" width="80" height="47.5" as="geometry" />
        </mxCell>
        <mxCell id="lL887fT7Myv8G0gaGl4e-80" value="" style="endArrow=none;html=1;rounded=0;entryX=0;entryY=0.5;entryDx=0;entryDy=0;exitX=1;exitY=0.5;exitDx=0;exitDy=0;" edge="1" parent="1" source="lL887fT7Myv8G0gaGl4e-78" target="6iKX3gJ1TNEP-AL-QCUX-22">
          <mxGeometry relative="1" as="geometry">
            <mxPoint x="-160" y="380" as="sourcePoint" />
            <mxPoint y="380" as="targetPoint" />
          </mxGeometry>
        </mxCell>
        <mxCell id="lL887fT7Myv8G0gaGl4e-81" value="1" style="resizable=0;html=1;whiteSpace=wrap;align=right;verticalAlign=bottom;" connectable="0" vertex="1" parent="lL887fT7Myv8G0gaGl4e-80">
          <mxGeometry x="1" relative="1" as="geometry" />
        </mxCell>
        <mxCell id="lL887fT7Myv8G0gaGl4e-82" value="" style="endArrow=none;html=1;rounded=0;entryX=1;entryY=0.5;entryDx=0;entryDy=0;exitX=0;exitY=0.5;exitDx=0;exitDy=0;" edge="1" parent="1" source="lL887fT7Myv8G0gaGl4e-78" target="6iKX3gJ1TNEP-AL-QCUX-21">
          <mxGeometry relative="1" as="geometry">
            <mxPoint x="-40" y="264" as="sourcePoint" />
            <mxPoint x="20" y="260" as="targetPoint" />
          </mxGeometry>
        </mxCell>
        <mxCell id="lL887fT7Myv8G0gaGl4e-83" value="M" style="resizable=0;html=1;whiteSpace=wrap;align=right;verticalAlign=bottom;" connectable="0" vertex="1" parent="lL887fT7Myv8G0gaGl4e-82">
          <mxGeometry x="1" relative="1" as="geometry">
            <mxPoint x="15" as="offset" />
          </mxGeometry>
        </mxCell>
        <mxCell id="lL887fT7Myv8G0gaGl4e-84" value="owns" style="shape=rhombus;perimeter=rhombusPerimeter;whiteSpace=wrap;html=1;align=center;" vertex="1" parent="1">
          <mxGeometry x="22.5" y="121.25" width="72.5" height="47.5" as="geometry" />
        </mxCell>
        <mxCell id="lL887fT7Myv8G0gaGl4e-85" value="" style="endArrow=none;html=1;rounded=0;entryX=0.5;entryY=0;entryDx=0;entryDy=0;exitX=0.5;exitY=1;exitDx=0;exitDy=0;" edge="1" parent="1" source="lL887fT7Myv8G0gaGl4e-84" target="6iKX3gJ1TNEP-AL-QCUX-22">
          <mxGeometry relative="1" as="geometry">
            <mxPoint x="-50" y="264" as="sourcePoint" />
            <mxPoint x="20" y="264" as="targetPoint" />
          </mxGeometry>
        </mxCell>
        <mxCell id="lL887fT7Myv8G0gaGl4e-86" value="1" style="resizable=0;html=1;whiteSpace=wrap;align=right;verticalAlign=bottom;" connectable="0" vertex="1" parent="lL887fT7Myv8G0gaGl4e-85">
          <mxGeometry x="1" relative="1" as="geometry" />
        </mxCell>
        <mxCell id="lL887fT7Myv8G0gaGl4e-87" value="" style="endArrow=none;html=1;rounded=0;entryX=0.5;entryY=1;entryDx=0;entryDy=0;" edge="1" parent="1" source="lL887fT7Myv8G0gaGl4e-84" target="6iKX3gJ1TNEP-AL-QCUX-18">
          <mxGeometry relative="1" as="geometry">
            <mxPoint x="-130" y="264" as="sourcePoint" />
            <mxPoint x="-185" y="264" as="targetPoint" />
          </mxGeometry>
        </mxCell>
        <mxCell id="lL887fT7Myv8G0gaGl4e-88" value="M" style="resizable=0;html=1;whiteSpace=wrap;align=right;verticalAlign=bottom;" connectable="0" vertex="1" parent="lL887fT7Myv8G0gaGl4e-87">
          <mxGeometry x="1" relative="1" as="geometry">
            <mxPoint x="15" y="16" as="offset" />
          </mxGeometry>
        </mxCell>
        <mxCell id="lL887fT7Myv8G0gaGl4e-89" value="" style="endArrow=none;html=1;rounded=0;entryX=0;entryY=0;entryDx=0;entryDy=0;exitX=1;exitY=1;exitDx=0;exitDy=0;" edge="1" parent="1" source="lL887fT7Myv8G0gaGl4e-36" target="6iKX3gJ1TNEP-AL-QCUX-18">
          <mxGeometry relative="1" as="geometry">
            <mxPoint x="145" y="175" as="sourcePoint" />
            <mxPoint x="95" y="244" as="targetPoint" />
          </mxGeometry>
        </mxCell>
        <mxCell id="lL887fT7Myv8G0gaGl4e-90" value="" style="endArrow=none;html=1;rounded=0;entryX=0.5;entryY=0;entryDx=0;entryDy=0;exitX=0.5;exitY=1;exitDx=0;exitDy=0;" edge="1" parent="1" source="lL887fT7Myv8G0gaGl4e-38" target="6iKX3gJ1TNEP-AL-QCUX-18">
          <mxGeometry relative="1" as="geometry">
            <mxPoint x="10" y="20" as="sourcePoint" />
            <mxPoint x="45" y="50" as="targetPoint" />
          </mxGeometry>
        </mxCell>
        <mxCell id="lL887fT7Myv8G0gaGl4e-91" value="has" style="shape=rhombus;perimeter=rhombusPerimeter;whiteSpace=wrap;html=1;align=center;" vertex="1" parent="1">
          <mxGeometry x="23.75" y="365" width="72.5" height="47.5" as="geometry" />
        </mxCell>
        <mxCell id="lL887fT7Myv8G0gaGl4e-92" value="" style="endArrow=none;html=1;rounded=0;exitX=0.5;exitY=1;exitDx=0;exitDy=0;entryX=0.25;entryY=0;entryDx=0;entryDy=0;" edge="1" parent="1" source="lL887fT7Myv8G0gaGl4e-40" target="6iKX3gJ1TNEP-AL-QCUX-13">
          <mxGeometry relative="1" as="geometry">
            <mxPoint x="-235" y="284" as="sourcePoint" />
            <mxPoint x="-276" y="319" as="targetPoint" />
          </mxGeometry>
        </mxCell>
        <mxCell id="lL887fT7Myv8G0gaGl4e-93" value="" style="endArrow=none;html=1;rounded=0;exitX=0.5;exitY=0;exitDx=0;exitDy=0;entryX=0.25;entryY=1;entryDx=0;entryDy=0;" edge="1" parent="1" source="lL887fT7Myv8G0gaGl4e-45" target="6iKX3gJ1TNEP-AL-QCUX-13">
          <mxGeometry relative="1" as="geometry">
            <mxPoint x="-2" y="515" as="sourcePoint" />
            <mxPoint x="48" y="535" as="targetPoint" />
          </mxGeometry>
        </mxCell>
        <mxCell id="lL887fT7Myv8G0gaGl4e-94" value="" style="endArrow=none;html=1;rounded=0;exitX=0.5;exitY=1;exitDx=0;exitDy=0;entryX=0.5;entryY=0;entryDx=0;entryDy=0;" edge="1" parent="1" source="lL887fT7Myv8G0gaGl4e-41" target="6iKX3gJ1TNEP-AL-QCUX-13">
          <mxGeometry relative="1" as="geometry">
            <mxPoint x="8" y="525" as="sourcePoint" />
            <mxPoint x="58" y="545" as="targetPoint" />
          </mxGeometry>
        </mxCell>
        <mxCell id="lL887fT7Myv8G0gaGl4e-95" value="" style="endArrow=none;html=1;rounded=0;exitX=0.5;exitY=1;exitDx=0;exitDy=0;entryX=0.75;entryY=0;entryDx=0;entryDy=0;" edge="1" parent="1" source="lL887fT7Myv8G0gaGl4e-39" target="6iKX3gJ1TNEP-AL-QCUX-13">
          <mxGeometry relative="1" as="geometry">
            <mxPoint x="48" y="500" as="sourcePoint" />
            <mxPoint x="75" y="535" as="targetPoint" />
          </mxGeometry>
        </mxCell>
        <mxCell id="lL887fT7Myv8G0gaGl4e-96" value="" style="endArrow=none;html=1;rounded=0;exitX=0.5;exitY=1;exitDx=0;exitDy=0;entryX=1;entryY=0;entryDx=0;entryDy=0;" edge="1" parent="1" source="lL887fT7Myv8G0gaGl4e-35" target="6iKX3gJ1TNEP-AL-QCUX-13">
          <mxGeometry relative="1" as="geometry">
            <mxPoint x="58" y="510" as="sourcePoint" />
            <mxPoint x="85" y="545" as="targetPoint" />
          </mxGeometry>
        </mxCell>
        <mxCell id="lL887fT7Myv8G0gaGl4e-97" value="" style="endArrow=none;html=1;rounded=0;exitX=0.5;exitY=1;exitDx=0;exitDy=0;entryX=0.5;entryY=0;entryDx=0;entryDy=0;" edge="1" parent="1" source="6iKX3gJ1TNEP-AL-QCUX-13" target="lL887fT7Myv8G0gaGl4e-42">
          <mxGeometry relative="1" as="geometry">
            <mxPoint x="68" y="520" as="sourcePoint" />
            <mxPoint x="95" y="555" as="targetPoint" />
          </mxGeometry>
        </mxCell>
        <mxCell id="lL887fT7Myv8G0gaGl4e-98" value="" style="endArrow=none;html=1;rounded=0;exitX=0.75;exitY=1;exitDx=0;exitDy=0;entryX=0.5;entryY=0;entryDx=0;entryDy=0;" edge="1" parent="1" source="6iKX3gJ1TNEP-AL-QCUX-13" target="lL887fT7Myv8G0gaGl4e-44">
          <mxGeometry relative="1" as="geometry">
            <mxPoint x="-35" y="520" as="sourcePoint" />
            <mxPoint x="48" y="535" as="targetPoint" />
          </mxGeometry>
        </mxCell>
        <mxCell id="lL887fT7Myv8G0gaGl4e-99" value="" style="endArrow=none;html=1;rounded=0;entryX=0.5;entryY=0;entryDx=0;entryDy=0;exitX=0.5;exitY=1;exitDx=0;exitDy=0;" edge="1" parent="1" source="lL887fT7Myv8G0gaGl4e-91" target="6iKX3gJ1TNEP-AL-QCUX-13">
          <mxGeometry relative="1" as="geometry">
            <mxPoint x="-130" y="264" as="sourcePoint" />
            <mxPoint x="-185" y="264" as="targetPoint" />
          </mxGeometry>
        </mxCell>
        <mxCell id="lL887fT7Myv8G0gaGl4e-100" value="M" style="resizable=0;html=1;whiteSpace=wrap;align=right;verticalAlign=bottom;" connectable="0" vertex="1" parent="lL887fT7Myv8G0gaGl4e-99">
          <mxGeometry x="1" relative="1" as="geometry">
            <mxPoint x="15" as="offset" />
          </mxGeometry>
        </mxCell>
        <mxCell id="lL887fT7Myv8G0gaGl4e-101" value="" style="endArrow=none;html=1;rounded=0;entryX=0.5;entryY=1;entryDx=0;entryDy=0;exitX=0.5;exitY=0;exitDx=0;exitDy=0;" edge="1" parent="1" source="lL887fT7Myv8G0gaGl4e-91" target="6iKX3gJ1TNEP-AL-QCUX-22">
          <mxGeometry relative="1" as="geometry">
            <mxPoint x="-50" y="264" as="sourcePoint" />
            <mxPoint x="20" y="264" as="targetPoint" />
          </mxGeometry>
        </mxCell>
        <mxCell id="lL887fT7Myv8G0gaGl4e-102" value="1" style="resizable=0;html=1;whiteSpace=wrap;align=right;verticalAlign=bottom;" connectable="0" vertex="1" parent="lL887fT7Myv8G0gaGl4e-101">
          <mxGeometry x="1" relative="1" as="geometry" />
        </mxCell>
        <mxCell id="lL887fT7Myv8G0gaGl4e-104" value="apply" style="shape=rhombus;perimeter=rhombusPerimeter;whiteSpace=wrap;html=1;align=center;" vertex="1" parent="1">
          <mxGeometry x="190" y="235" width="62.5" height="37.5" as="geometry" />
        </mxCell>
        <mxCell id="lL887fT7Myv8G0gaGl4e-106" value="" style="endArrow=none;html=1;rounded=0;entryX=0;entryY=0.5;entryDx=0;entryDy=0;exitX=1;exitY=0.5;exitDx=0;exitDy=0;" edge="1" parent="1" source="lL887fT7Myv8G0gaGl4e-104" target="6iKX3gJ1TNEP-AL-QCUX-20">
          <mxGeometry relative="1" as="geometry">
            <mxPoint x="70" y="423" as="sourcePoint" />
            <mxPoint x="70" y="495" as="targetPoint" />
          </mxGeometry>
        </mxCell>
        <mxCell id="lL887fT7Myv8G0gaGl4e-107" value="M" style="resizable=0;html=1;whiteSpace=wrap;align=right;verticalAlign=bottom;" connectable="0" vertex="1" parent="lL887fT7Myv8G0gaGl4e-106">
          <mxGeometry x="1" relative="1" as="geometry">
            <mxPoint as="offset" />
          </mxGeometry>
        </mxCell>
        <mxCell id="lL887fT7Myv8G0gaGl4e-108" value="" style="endArrow=none;html=1;rounded=0;entryX=1;entryY=0.5;entryDx=0;entryDy=0;exitX=0;exitY=0.5;exitDx=0;exitDy=0;" edge="1" parent="1" source="lL887fT7Myv8G0gaGl4e-104" target="6iKX3gJ1TNEP-AL-QCUX-22">
          <mxGeometry relative="1" as="geometry">
            <mxPoint x="70" y="375" as="sourcePoint" />
            <mxPoint x="70" y="284" as="targetPoint" />
          </mxGeometry>
        </mxCell>
        <mxCell id="lL887fT7Myv8G0gaGl4e-109" value="1" style="resizable=0;html=1;whiteSpace=wrap;align=right;verticalAlign=bottom;" connectable="0" vertex="1" parent="lL887fT7Myv8G0gaGl4e-108">
          <mxGeometry x="1" relative="1" as="geometry">
            <mxPoint x="10" as="offset" />
          </mxGeometry>
        </mxCell>
        <mxCell id="lL887fT7Myv8G0gaGl4e-110" value="" style="endArrow=none;html=1;rounded=0;entryX=0.5;entryY=1;entryDx=0;entryDy=0;exitX=0.25;exitY=0;exitDx=0;exitDy=0;" edge="1" parent="1" source="6iKX3gJ1TNEP-AL-QCUX-20" target="lL887fT7Myv8G0gaGl4e-54">
          <mxGeometry relative="1" as="geometry">
            <mxPoint x="70" y="284" as="sourcePoint" />
            <mxPoint x="140" y="345" as="targetPoint" />
          </mxGeometry>
        </mxCell>
        <mxCell id="lL887fT7Myv8G0gaGl4e-111" value="" style="endArrow=none;html=1;rounded=0;entryX=0.5;entryY=1;entryDx=0;entryDy=0;exitX=0.5;exitY=0;exitDx=0;exitDy=0;" edge="1" parent="1" source="6iKX3gJ1TNEP-AL-QCUX-20" target="lL887fT7Myv8G0gaGl4e-37">
          <mxGeometry relative="1" as="geometry">
            <mxPoint x="335" y="244" as="sourcePoint" />
            <mxPoint x="310" y="225" as="targetPoint" />
          </mxGeometry>
        </mxCell>
        <mxCell id="lL887fT7Myv8G0gaGl4e-112" value="" style="endArrow=none;html=1;rounded=0;entryX=0.5;entryY=0;entryDx=0;entryDy=0;exitX=0.25;exitY=1;exitDx=0;exitDy=0;" edge="1" parent="1" source="6iKX3gJ1TNEP-AL-QCUX-20" target="lL887fT7Myv8G0gaGl4e-49">
          <mxGeometry relative="1" as="geometry">
            <mxPoint x="360" y="244" as="sourcePoint" />
            <mxPoint x="385" y="218" as="targetPoint" />
          </mxGeometry>
        </mxCell>
        <mxCell id="lL887fT7Myv8G0gaGl4e-113" value="" style="endArrow=none;html=1;rounded=0;entryX=0.5;entryY=0;entryDx=0;entryDy=0;exitX=0.5;exitY=1;exitDx=0;exitDy=0;" edge="1" parent="1" source="6iKX3gJ1TNEP-AL-QCUX-20" target="lL887fT7Myv8G0gaGl4e-50">
          <mxGeometry relative="1" as="geometry">
            <mxPoint x="335" y="284" as="sourcePoint" />
            <mxPoint x="300" y="310" as="targetPoint" />
          </mxGeometry>
        </mxCell>
        <mxCell id="lL887fT7Myv8G0gaGl4e-114" value="" style="endArrow=none;html=1;rounded=0;entryX=0.5;entryY=0;entryDx=0;entryDy=0;exitX=0.75;exitY=1;exitDx=0;exitDy=0;" edge="1" parent="1" source="6iKX3gJ1TNEP-AL-QCUX-20" target="lL887fT7Myv8G0gaGl4e-51">
          <mxGeometry relative="1" as="geometry">
            <mxPoint x="360" y="284" as="sourcePoint" />
            <mxPoint x="338" y="350" as="targetPoint" />
          </mxGeometry>
        </mxCell>
        <mxCell id="lL887fT7Myv8G0gaGl4e-116" value="" style="endArrow=none;html=1;rounded=0;entryX=0.5;entryY=1;entryDx=0;entryDy=0;exitX=0.25;exitY=0;exitDx=0;exitDy=0;" edge="1" parent="1" source="6iKX3gJ1TNEP-AL-QCUX-12" target="lL887fT7Myv8G0gaGl4e-58">
          <mxGeometry relative="1" as="geometry">
            <mxPoint x="280" y="130" as="sourcePoint" />
            <mxPoint x="355" y="96" as="targetPoint" />
          </mxGeometry>
        </mxCell>
        <mxCell id="lL887fT7Myv8G0gaGl4e-117" value="" style="endArrow=none;html=1;rounded=0;entryX=0.5;entryY=1;entryDx=0;entryDy=0;exitX=0.5;exitY=0;exitDx=0;exitDy=0;" edge="1" parent="1" source="6iKX3gJ1TNEP-AL-QCUX-12" target="lL887fT7Myv8G0gaGl4e-59">
          <mxGeometry relative="1" as="geometry">
            <mxPoint x="370" y="45" as="sourcePoint" />
            <mxPoint x="340" y="20" as="targetPoint" />
          </mxGeometry>
        </mxCell>
        <mxCell id="lL887fT7Myv8G0gaGl4e-118" value="" style="endArrow=none;html=1;rounded=0;entryX=0.5;entryY=1;entryDx=0;entryDy=0;exitX=0.75;exitY=0;exitDx=0;exitDy=0;" edge="1" parent="1" source="6iKX3gJ1TNEP-AL-QCUX-12" target="lL887fT7Myv8G0gaGl4e-60">
          <mxGeometry relative="1" as="geometry">
            <mxPoint x="395" y="45" as="sourcePoint" />
            <mxPoint x="388" y="-10" as="targetPoint" />
          </mxGeometry>
        </mxCell>
        <mxCell id="lL887fT7Myv8G0gaGl4e-119" value="" style="endArrow=none;html=1;rounded=0;exitX=0.75;exitY=1;exitDx=0;exitDy=0;entryX=0;entryY=0;entryDx=0;entryDy=0;" edge="1" parent="1" source="6iKX3gJ1TNEP-AL-QCUX-12" target="lL887fT7Myv8G0gaGl4e-61">
          <mxGeometry relative="1" as="geometry">
            <mxPoint x="420" y="45" as="sourcePoint" />
            <mxPoint x="400" y="120" as="targetPoint" />
          </mxGeometry>
        </mxCell>
        <mxCell id="lL887fT7Myv8G0gaGl4e-120" value="have" style="shape=rhombus;perimeter=rhombusPerimeter;whiteSpace=wrap;html=1;align=center;" vertex="1" parent="1">
          <mxGeometry x="317.5" y="135" width="65" height="42.5" as="geometry" />
        </mxCell>
        <mxCell id="lL887fT7Myv8G0gaGl4e-121" value="" style="endArrow=none;html=1;rounded=0;entryX=0.5;entryY=1;entryDx=0;entryDy=0;exitX=0.5;exitY=0;exitDx=0;exitDy=0;" edge="1" parent="1" source="lL887fT7Myv8G0gaGl4e-120" target="6iKX3gJ1TNEP-AL-QCUX-12">
          <mxGeometry relative="1" as="geometry">
            <mxPoint x="200" y="264" as="sourcePoint" />
            <mxPoint x="120" y="264" as="targetPoint" />
          </mxGeometry>
        </mxCell>
        <mxCell id="lL887fT7Myv8G0gaGl4e-122" value="1" style="resizable=0;html=1;whiteSpace=wrap;align=right;verticalAlign=bottom;" connectable="0" vertex="1" parent="lL887fT7Myv8G0gaGl4e-121">
          <mxGeometry x="1" relative="1" as="geometry">
            <mxPoint x="10" y="25" as="offset" />
          </mxGeometry>
        </mxCell>
        <mxCell id="lL887fT7Myv8G0gaGl4e-123" value="" style="endArrow=none;html=1;rounded=0;entryX=0.5;entryY=0;entryDx=0;entryDy=0;exitX=0.5;exitY=1;exitDx=0;exitDy=0;" edge="1" parent="1" source="lL887fT7Myv8G0gaGl4e-120" target="6iKX3gJ1TNEP-AL-QCUX-20">
          <mxGeometry relative="1" as="geometry">
            <mxPoint x="263" y="264" as="sourcePoint" />
            <mxPoint x="310" y="264" as="targetPoint" />
          </mxGeometry>
        </mxCell>
        <mxCell id="lL887fT7Myv8G0gaGl4e-124" value="M" style="resizable=0;html=1;whiteSpace=wrap;align=right;verticalAlign=bottom;" connectable="0" vertex="1" parent="lL887fT7Myv8G0gaGl4e-123">
          <mxGeometry x="1" relative="1" as="geometry">
            <mxPoint as="offset" />
          </mxGeometry>
        </mxCell>
        <mxCell id="lL887fT7Myv8G0gaGl4e-125" value="have" style="shape=rhombus;perimeter=rhombusPerimeter;whiteSpace=wrap;html=1;align=center;" vertex="1" parent="1">
          <mxGeometry x="180" y="483.13" width="60" height="43.75" as="geometry" />
        </mxCell>
        <mxCell id="lL887fT7Myv8G0gaGl4e-126" value="" style="endArrow=none;html=1;rounded=0;entryX=0;entryY=0.5;entryDx=0;entryDy=0;exitX=1;exitY=0.5;exitDx=0;exitDy=0;" edge="1" parent="1" source="lL887fT7Myv8G0gaGl4e-125" target="6iKX3gJ1TNEP-AL-QCUX-17">
          <mxGeometry relative="1" as="geometry">
            <mxPoint x="70" y="423" as="sourcePoint" />
            <mxPoint x="70" y="495" as="targetPoint" />
          </mxGeometry>
        </mxCell>
        <mxCell id="lL887fT7Myv8G0gaGl4e-127" value="M" style="resizable=0;html=1;whiteSpace=wrap;align=right;verticalAlign=bottom;" connectable="0" vertex="1" parent="lL887fT7Myv8G0gaGl4e-126">
          <mxGeometry x="1" relative="1" as="geometry">
            <mxPoint y="-1" as="offset" />
          </mxGeometry>
        </mxCell>
        <mxCell id="lL887fT7Myv8G0gaGl4e-129" value="" style="endArrow=none;html=1;rounded=0;entryX=1;entryY=0.5;entryDx=0;entryDy=0;exitX=0;exitY=0.5;exitDx=0;exitDy=0;" edge="1" parent="1" source="lL887fT7Myv8G0gaGl4e-125" target="6iKX3gJ1TNEP-AL-QCUX-13">
          <mxGeometry relative="1" as="geometry">
            <mxPoint x="70" y="375" as="sourcePoint" />
            <mxPoint x="70" y="284" as="targetPoint" />
          </mxGeometry>
        </mxCell>
        <mxCell id="lL887fT7Myv8G0gaGl4e-130" value="1" style="resizable=0;html=1;whiteSpace=wrap;align=right;verticalAlign=bottom;" connectable="0" vertex="1" parent="lL887fT7Myv8G0gaGl4e-129">
          <mxGeometry x="1" relative="1" as="geometry">
            <mxPoint x="15" y="2" as="offset" />
          </mxGeometry>
        </mxCell>
        <mxCell id="lL887fT7Myv8G0gaGl4e-132" value="" style="endArrow=none;html=1;rounded=0;exitX=0.5;exitY=1;exitDx=0;exitDy=0;entryX=0.25;entryY=0;entryDx=0;entryDy=0;" edge="1" parent="1" source="lL887fT7Myv8G0gaGl4e-15" target="6iKX3gJ1TNEP-AL-QCUX-17">
          <mxGeometry relative="1" as="geometry">
            <mxPoint x="115" y="453" as="sourcePoint" />
            <mxPoint x="98" y="495" as="targetPoint" />
          </mxGeometry>
        </mxCell>
        <mxCell id="lL887fT7Myv8G0gaGl4e-133" value="" style="endArrow=none;html=1;rounded=0;exitX=0.5;exitY=1;exitDx=0;exitDy=0;entryX=0.5;entryY=0;entryDx=0;entryDy=0;" edge="1" parent="1" source="lL887fT7Myv8G0gaGl4e-17" target="6iKX3gJ1TNEP-AL-QCUX-17">
          <mxGeometry relative="1" as="geometry">
            <mxPoint x="298" y="470" as="sourcePoint" />
            <mxPoint x="315" y="493" as="targetPoint" />
          </mxGeometry>
        </mxCell>
        <mxCell id="lL887fT7Myv8G0gaGl4e-134" value="" style="endArrow=none;html=1;rounded=0;exitX=0.5;exitY=0;exitDx=0;exitDy=0;entryX=0.5;entryY=1;entryDx=0;entryDy=0;" edge="1" parent="1" source="lL887fT7Myv8G0gaGl4e-18" target="6iKX3gJ1TNEP-AL-QCUX-17">
          <mxGeometry relative="1" as="geometry">
            <mxPoint x="308" y="480" as="sourcePoint" />
            <mxPoint x="325" y="503" as="targetPoint" />
          </mxGeometry>
        </mxCell>
        <mxCell id="lL887fT7Myv8G0gaGl4e-135" value="" style="endArrow=none;html=1;rounded=0;exitX=0.5;exitY=1;exitDx=0;exitDy=0;entryX=0.25;entryY=0;entryDx=0;entryDy=0;" edge="1" parent="1" source="lL887fT7Myv8G0gaGl4e-32" target="6iKX3gJ1TNEP-AL-QCUX-14">
          <mxGeometry relative="1" as="geometry">
            <mxPoint x="23" y="458" as="sourcePoint" />
            <mxPoint x="70" y="495" as="targetPoint" />
          </mxGeometry>
        </mxCell>
        <mxCell id="lL887fT7Myv8G0gaGl4e-136" value="" style="endArrow=none;html=1;rounded=0;exitX=0.5;exitY=1;exitDx=0;exitDy=0;entryX=0.5;entryY=0;entryDx=0;entryDy=0;" edge="1" parent="1" source="lL887fT7Myv8G0gaGl4e-33" target="6iKX3gJ1TNEP-AL-QCUX-14">
          <mxGeometry relative="1" as="geometry">
            <mxPoint x="-20" y="483" as="sourcePoint" />
            <mxPoint x="43" y="495" as="targetPoint" />
          </mxGeometry>
        </mxCell>
        <mxCell id="lL887fT7Myv8G0gaGl4e-137" value="" style="endArrow=none;html=1;rounded=0;exitX=0.5;exitY=1;exitDx=0;exitDy=0;entryX=0.75;entryY=0;entryDx=0;entryDy=0;" edge="1" parent="1" source="lL887fT7Myv8G0gaGl4e-34" target="6iKX3gJ1TNEP-AL-QCUX-14">
          <mxGeometry relative="1" as="geometry">
            <mxPoint x="-290" y="470" as="sourcePoint" />
            <mxPoint x="-275" y="497" as="targetPoint" />
          </mxGeometry>
        </mxCell>
        <mxCell id="lL887fT7Myv8G0gaGl4e-138" value="have" style="shape=rhombus;perimeter=rhombusPerimeter;whiteSpace=wrap;html=1;align=center;" vertex="1" parent="1">
          <mxGeometry x="-125" y="483.14" width="60" height="43.75" as="geometry" />
        </mxCell>
        <mxCell id="lL887fT7Myv8G0gaGl4e-139" value="" style="endArrow=none;html=1;rounded=0;entryX=0;entryY=0.5;entryDx=0;entryDy=0;exitX=1;exitY=0.5;exitDx=0;exitDy=0;" edge="1" parent="1" source="lL887fT7Myv8G0gaGl4e-138" target="6iKX3gJ1TNEP-AL-QCUX-13">
          <mxGeometry relative="1" as="geometry">
            <mxPoint x="-50" y="264" as="sourcePoint" />
            <mxPoint x="20" y="264" as="targetPoint" />
          </mxGeometry>
        </mxCell>
        <mxCell id="lL887fT7Myv8G0gaGl4e-140" value="1" style="resizable=0;html=1;whiteSpace=wrap;align=right;verticalAlign=bottom;" connectable="0" vertex="1" parent="lL887fT7Myv8G0gaGl4e-139">
          <mxGeometry x="1" relative="1" as="geometry" />
        </mxCell>
        <mxCell id="lL887fT7Myv8G0gaGl4e-141" value="" style="endArrow=none;html=1;rounded=0;entryX=1;entryY=0.5;entryDx=0;entryDy=0;exitX=0;exitY=0.5;exitDx=0;exitDy=0;" edge="1" parent="1" source="lL887fT7Myv8G0gaGl4e-138" target="6iKX3gJ1TNEP-AL-QCUX-14">
          <mxGeometry relative="1" as="geometry">
            <mxPoint x="-130" y="264" as="sourcePoint" />
            <mxPoint x="-185" y="264" as="targetPoint" />
          </mxGeometry>
        </mxCell>
        <mxCell id="lL887fT7Myv8G0gaGl4e-142" value="M" style="resizable=0;html=1;whiteSpace=wrap;align=right;verticalAlign=bottom;" connectable="0" vertex="1" parent="lL887fT7Myv8G0gaGl4e-141">
          <mxGeometry x="1" relative="1" as="geometry">
            <mxPoint x="15" as="offset" />
          </mxGeometry>
        </mxCell>
        <mxCell id="lL887fT7Myv8G0gaGl4e-144" value="" style="endArrow=none;html=1;rounded=0;exitX=0.5;exitY=1;exitDx=0;exitDy=0;entryX=0;entryY=0;entryDx=0;entryDy=0;" edge="1" parent="1" source="lL887fT7Myv8G0gaGl4e-20" target="6iKX3gJ1TNEP-AL-QCUX-16">
          <mxGeometry relative="1" as="geometry">
            <mxPoint x="-235" y="193" as="sourcePoint" />
            <mxPoint x="-235" y="244" as="targetPoint" />
          </mxGeometry>
        </mxCell>
        <mxCell id="lL887fT7Myv8G0gaGl4e-145" value="" style="endArrow=none;html=1;rounded=0;exitX=0.5;exitY=1;exitDx=0;exitDy=0;entryX=0.5;entryY=0;entryDx=0;entryDy=0;" edge="1" parent="1" source="lL887fT7Myv8G0gaGl4e-19" target="6iKX3gJ1TNEP-AL-QCUX-16">
          <mxGeometry relative="1" as="geometry">
            <mxPoint x="-307" y="55" as="sourcePoint" />
            <mxPoint x="-255" y="70" as="targetPoint" />
          </mxGeometry>
        </mxCell>
        <mxCell id="lL887fT7Myv8G0gaGl4e-146" value="" style="endArrow=none;html=1;rounded=0;exitX=0.5;exitY=1;exitDx=0;exitDy=0;entryX=0.75;entryY=0;entryDx=0;entryDy=0;" edge="1" parent="1" source="lL887fT7Myv8G0gaGl4e-21" target="6iKX3gJ1TNEP-AL-QCUX-16">
          <mxGeometry relative="1" as="geometry">
            <mxPoint x="-230" y="50" as="sourcePoint" />
            <mxPoint x="-205" y="70" as="targetPoint" />
          </mxGeometry>
        </mxCell>
        <mxCell id="lL887fT7Myv8G0gaGl4e-147" value="" style="endArrow=none;html=1;rounded=0;exitX=1;exitY=0.5;exitDx=0;exitDy=0;entryX=0;entryY=0.5;entryDx=0;entryDy=0;" edge="1" parent="1" source="lL887fT7Myv8G0gaGl4e-23" target="6iKX3gJ1TNEP-AL-QCUX-16">
          <mxGeometry relative="1" as="geometry">
            <mxPoint x="-220" y="60" as="sourcePoint" />
            <mxPoint x="-195" y="80" as="targetPoint" />
          </mxGeometry>
        </mxCell>
        <mxCell id="lL887fT7Myv8G0gaGl4e-148" value="has" style="shape=rhombus;perimeter=rhombusPerimeter;whiteSpace=wrap;html=1;align=center;rotation=30;" vertex="1" parent="1">
          <mxGeometry x="-132.5" y="121.25" width="65" height="42.5" as="geometry" />
        </mxCell>
        <mxCell id="lL887fT7Myv8G0gaGl4e-149" value="" style="endArrow=none;html=1;rounded=0;entryX=0.25;entryY=0;entryDx=0;entryDy=0;exitX=1;exitY=0.5;exitDx=0;exitDy=0;" edge="1" parent="1" source="lL887fT7Myv8G0gaGl4e-148" target="6iKX3gJ1TNEP-AL-QCUX-22">
          <mxGeometry relative="1" as="geometry">
            <mxPoint x="69" y="179" as="sourcePoint" />
            <mxPoint x="70" y="244" as="targetPoint" />
          </mxGeometry>
        </mxCell>
        <mxCell id="lL887fT7Myv8G0gaGl4e-150" value="1" style="resizable=0;html=1;whiteSpace=wrap;align=right;verticalAlign=bottom;" connectable="0" vertex="1" parent="lL887fT7Myv8G0gaGl4e-149">
          <mxGeometry x="1" relative="1" as="geometry" />
        </mxCell>
        <mxCell id="lL887fT7Myv8G0gaGl4e-151" value="" style="endArrow=none;html=1;rounded=0;entryX=1;entryY=1;entryDx=0;entryDy=0;exitX=0;exitY=0.5;exitDx=0;exitDy=0;" edge="1" parent="1" source="lL887fT7Myv8G0gaGl4e-148" target="6iKX3gJ1TNEP-AL-QCUX-16">
          <mxGeometry relative="1" as="geometry">
            <mxPoint x="-130" y="264" as="sourcePoint" />
            <mxPoint x="-185" y="264" as="targetPoint" />
          </mxGeometry>
        </mxCell>
        <mxCell id="lL887fT7Myv8G0gaGl4e-152" value="M" style="resizable=0;html=1;whiteSpace=wrap;align=right;verticalAlign=bottom;" connectable="0" vertex="1" parent="lL887fT7Myv8G0gaGl4e-151">
          <mxGeometry x="1" relative="1" as="geometry">
            <mxPoint x="15" as="offset" />
          </mxGeometry>
        </mxCell>
        <mxCell id="lL887fT7Myv8G0gaGl4e-153" value="" style="endArrow=none;html=1;rounded=0;entryX=0.5;entryY=1;entryDx=0;entryDy=0;exitX=0.25;exitY=0;exitDx=0;exitDy=0;" edge="1" parent="1" source="6iKX3gJ1TNEP-AL-QCUX-15" target="lL887fT7Myv8G0gaGl4e-3">
          <mxGeometry relative="1" as="geometry">
            <mxPoint x="360" y="244" as="sourcePoint" />
            <mxPoint x="435" y="210" as="targetPoint" />
          </mxGeometry>
        </mxCell>
        <mxCell id="lL887fT7Myv8G0gaGl4e-154" value="" style="endArrow=none;html=1;rounded=0;entryX=0.5;entryY=1;entryDx=0;entryDy=0;exitX=0.5;exitY=0;exitDx=0;exitDy=0;" edge="1" parent="1" source="6iKX3gJ1TNEP-AL-QCUX-15" target="lL887fT7Myv8G0gaGl4e-12">
          <mxGeometry relative="1" as="geometry">
            <mxPoint x="605" y="240" as="sourcePoint" />
            <mxPoint x="565" y="223" as="targetPoint" />
          </mxGeometry>
        </mxCell>
        <mxCell id="lL887fT7Myv8G0gaGl4e-155" value="" style="endArrow=none;html=1;rounded=0;entryX=0.5;entryY=1;entryDx=0;entryDy=0;exitX=0.75;exitY=0;exitDx=0;exitDy=0;" edge="1" parent="1" source="6iKX3gJ1TNEP-AL-QCUX-15" target="lL887fT7Myv8G0gaGl4e-13">
          <mxGeometry relative="1" as="geometry">
            <mxPoint x="630" y="240" as="sourcePoint" />
            <mxPoint x="625" y="179" as="targetPoint" />
          </mxGeometry>
        </mxCell>
        <mxCell id="lL887fT7Myv8G0gaGl4e-156" value="have" style="shape=rhombus;perimeter=rhombusPerimeter;whiteSpace=wrap;html=1;align=center;" vertex="1" parent="1">
          <mxGeometry x="550" y="320" width="60" height="43.75" as="geometry" />
        </mxCell>
        <mxCell id="lL887fT7Myv8G0gaGl4e-157" value="" style="endArrow=none;html=1;rounded=0;entryX=0.5;entryY=0;entryDx=0;entryDy=0;exitX=0.5;exitY=1;exitDx=0;exitDy=0;" edge="1" parent="1" source="lL887fT7Myv8G0gaGl4e-156" target="6iKX3gJ1TNEP-AL-QCUX-19">
          <mxGeometry relative="1" as="geometry">
            <mxPoint x="250" y="515" as="sourcePoint" />
            <mxPoint x="288" y="515" as="targetPoint" />
          </mxGeometry>
        </mxCell>
        <mxCell id="lL887fT7Myv8G0gaGl4e-158" value="M" style="resizable=0;html=1;whiteSpace=wrap;align=right;verticalAlign=bottom;" connectable="0" vertex="1" parent="lL887fT7Myv8G0gaGl4e-157">
          <mxGeometry x="1" relative="1" as="geometry">
            <mxPoint y="-1" as="offset" />
          </mxGeometry>
        </mxCell>
        <mxCell id="lL887fT7Myv8G0gaGl4e-159" value="" style="endArrow=none;html=1;rounded=0;entryX=0.5;entryY=1;entryDx=0;entryDy=0;exitX=0.5;exitY=0;exitDx=0;exitDy=0;" edge="1" parent="1" source="lL887fT7Myv8G0gaGl4e-156" target="6iKX3gJ1TNEP-AL-QCUX-15">
          <mxGeometry relative="1" as="geometry">
            <mxPoint x="630" y="330" as="sourcePoint" />
            <mxPoint x="625" y="280" as="targetPoint" />
          </mxGeometry>
        </mxCell>
        <mxCell id="lL887fT7Myv8G0gaGl4e-160" value="M" style="resizable=0;html=1;whiteSpace=wrap;align=right;verticalAlign=bottom;" connectable="0" vertex="1" parent="lL887fT7Myv8G0gaGl4e-159">
          <mxGeometry x="1" relative="1" as="geometry">
            <mxPoint x="-5" y="10" as="offset" />
          </mxGeometry>
        </mxCell>
        <mxCell id="lL887fT7Myv8G0gaGl4e-164" value="" style="endArrow=none;html=1;rounded=0;entryX=0;entryY=0.5;entryDx=0;entryDy=0;exitX=0.5;exitY=1;exitDx=0;exitDy=0;" edge="1" parent="1" source="lL887fT7Myv8G0gaGl4e-25" target="6iKX3gJ1TNEP-AL-QCUX-19">
          <mxGeometry relative="1" as="geometry">
            <mxPoint x="615" y="240" as="sourcePoint" />
            <mxPoint x="635" y="214" as="targetPoint" />
          </mxGeometry>
        </mxCell>
        <mxCell id="lL887fT7Myv8G0gaGl4e-165" value="" style="endArrow=none;html=1;rounded=0;entryX=0.5;entryY=0;entryDx=0;entryDy=0;exitX=0.5;exitY=1;exitDx=0;exitDy=0;" edge="1" parent="1" source="lL887fT7Myv8G0gaGl4e-24" target="6iKX3gJ1TNEP-AL-QCUX-19">
          <mxGeometry relative="1" as="geometry">
            <mxPoint x="485" y="430" as="sourcePoint" />
            <mxPoint x="565" y="470" as="targetPoint" />
          </mxGeometry>
        </mxCell>
        <mxCell id="lL887fT7Myv8G0gaGl4e-166" value="" style="endArrow=none;html=1;rounded=0;exitX=0.5;exitY=1;exitDx=0;exitDy=0;" edge="1" parent="1" source="lL887fT7Myv8G0gaGl4e-26">
          <mxGeometry relative="1" as="geometry">
            <mxPoint x="535" y="430" as="sourcePoint" />
            <mxPoint x="605" y="460" as="targetPoint" />
          </mxGeometry>
        </mxCell>
        <mxCell id="lL887fT7Myv8G0gaGl4e-168" value="" style="endArrow=none;html=1;rounded=0;exitX=0;exitY=1;exitDx=0;exitDy=0;entryX=0.75;entryY=0;entryDx=0;entryDy=0;" edge="1" parent="1" source="lL887fT7Myv8G0gaGl4e-5" target="6iKX3gJ1TNEP-AL-QCUX-19">
          <mxGeometry relative="1" as="geometry">
            <mxPoint x="625" y="430" as="sourcePoint" />
            <mxPoint x="615" y="470" as="targetPoint" />
          </mxGeometry>
        </mxCell>
        <mxCell id="lL887fT7Myv8G0gaGl4e-169" value="" style="endArrow=none;html=1;rounded=0;exitX=0;exitY=1;exitDx=0;exitDy=0;entryX=1;entryY=0.5;entryDx=0;entryDy=0;" edge="1" parent="1" source="lL887fT7Myv8G0gaGl4e-29" target="6iKX3gJ1TNEP-AL-QCUX-19">
          <mxGeometry relative="1" as="geometry">
            <mxPoint x="680" y="426" as="sourcePoint" />
            <mxPoint x="615" y="470" as="targetPoint" />
          </mxGeometry>
        </mxCell>
        <mxCell id="lL887fT7Myv8G0gaGl4e-170" value="" style="endArrow=none;html=1;rounded=0;exitX=0.5;exitY=0;exitDx=0;exitDy=0;entryX=0;entryY=1;entryDx=0;entryDy=0;" edge="1" parent="1" source="lL887fT7Myv8G0gaGl4e-31" target="6iKX3gJ1TNEP-AL-QCUX-19">
          <mxGeometry relative="1" as="geometry">
            <mxPoint x="680" y="466" as="sourcePoint" />
            <mxPoint x="640" y="490" as="targetPoint" />
          </mxGeometry>
        </mxCell>
        <mxCell id="lL887fT7Myv8G0gaGl4e-171" value="" style="endArrow=none;html=1;rounded=0;exitX=0.5;exitY=1;exitDx=0;exitDy=0;entryX=0.5;entryY=0;entryDx=0;entryDy=0;" edge="1" parent="1" source="6iKX3gJ1TNEP-AL-QCUX-19" target="lL887fT7Myv8G0gaGl4e-28">
          <mxGeometry relative="1" as="geometry">
            <mxPoint x="513" y="540" as="sourcePoint" />
            <mxPoint x="540" y="510" as="targetPoint" />
          </mxGeometry>
        </mxCell>
        <mxCell id="lL887fT7Myv8G0gaGl4e-172" value="" style="endArrow=none;html=1;rounded=0;exitX=0;exitY=0;exitDx=0;exitDy=0;entryX=0.75;entryY=1;entryDx=0;entryDy=0;" edge="1" parent="1" source="lL887fT7Myv8G0gaGl4e-30" target="6iKX3gJ1TNEP-AL-QCUX-19">
          <mxGeometry relative="1" as="geometry">
            <mxPoint x="590" y="510" as="sourcePoint" />
            <mxPoint x="605" y="550" as="targetPoint" />
          </mxGeometry>
        </mxCell>
        <mxCell id="lL887fT7Myv8G0gaGl4e-173" value="" style="endArrow=none;html=1;rounded=0;exitX=1;exitY=0.75;exitDx=0;exitDy=0;entryX=0;entryY=0;entryDx=0;entryDy=0;" edge="1" parent="1" source="6iKX3gJ1TNEP-AL-QCUX-19" target="lL887fT7Myv8G0gaGl4e-27">
          <mxGeometry relative="1" as="geometry">
            <mxPoint x="600" y="520" as="sourcePoint" />
            <mxPoint x="615" y="560" as="targetPoint" />
          </mxGeometry>
        </mxCell>
        <mxCell id="lL887fT7Myv8G0gaGl4e-174" value="" style="endArrow=none;html=1;rounded=0;exitX=0.5;exitY=1;exitDx=0;exitDy=0;entryX=0.25;entryY=0;entryDx=0;entryDy=0;" edge="1" parent="1" source="lL887fT7Myv8G0gaGl4e-62" target="6iKX3gJ1TNEP-AL-QCUX-8">
          <mxGeometry relative="1" as="geometry">
            <mxPoint x="675" y="428" as="sourcePoint" />
            <mxPoint x="655" y="470" as="targetPoint" />
          </mxGeometry>
        </mxCell>
        <mxCell id="lL887fT7Myv8G0gaGl4e-175" value="" style="endArrow=none;html=1;rounded=0;exitX=0.5;exitY=1;exitDx=0;exitDy=0;entryX=0.5;entryY=0;entryDx=0;entryDy=0;" edge="1" parent="1" source="lL887fT7Myv8G0gaGl4e-64" target="6iKX3gJ1TNEP-AL-QCUX-8">
          <mxGeometry relative="1" as="geometry">
            <mxPoint x="740" y="310" as="sourcePoint" />
            <mxPoint x="785" y="335" as="targetPoint" />
          </mxGeometry>
        </mxCell>
        <mxCell id="lL887fT7Myv8G0gaGl4e-176" value="" style="endArrow=none;html=1;rounded=0;exitX=0.5;exitY=1;exitDx=0;exitDy=0;entryX=0.5;entryY=0;entryDx=0;entryDy=0;" edge="1" parent="1" source="6iKX3gJ1TNEP-AL-QCUX-8" target="lL887fT7Myv8G0gaGl4e-65">
          <mxGeometry relative="1" as="geometry">
            <mxPoint x="798" y="283" as="sourcePoint" />
            <mxPoint x="790" y="332" as="targetPoint" />
          </mxGeometry>
        </mxCell>
        <mxCell id="lL887fT7Myv8G0gaGl4e-177" value="" style="endArrow=none;html=1;rounded=0;entryX=1;entryY=0.5;entryDx=0;entryDy=0;exitX=0;exitY=0.5;exitDx=0;exitDy=0;" edge="1" parent="1" source="6iKX3gJ1TNEP-AL-QCUX-8" target="lL887fT7Myv8G0gaGl4e-156">
          <mxGeometry relative="1" as="geometry">
            <mxPoint x="360" y="244" as="sourcePoint" />
            <mxPoint x="435" y="210" as="targetPoint" />
          </mxGeometry>
        </mxCell>
      </root>
    </mxGraphModel>
  </diagram>
</mxfile>
